<?xml version="1.0" encoding="UTF-8"?>
<!DOCTYPE svg PUBLIC "-//W3C//DTD SVG 1.1//EN" "http://www.w3.org/Graphics/SVG/1.1/DTD/svg11.dtd">
<svg version="1.2" width="11.91mm" height="11.91mm" viewBox="0 0 1191 1191" preserveAspectRatio="xMidYMid" fill-rule="evenodd" stroke-width="28.222" stroke-linejoin="round" xmlns="http://www.w3.org/2000/svg" xmlns:ooo="http://xml.openoffice.org/svg/export" xmlns:xlink="http://www.w3.org/1999/xlink" xmlns:presentation="http://sun.com/xmlns/staroffice/presentation" xmlns:smil="http://www.w3.org/2001/SMIL20/" xmlns:anim="urn:oasis:names:tc:opendocument:xmlns:animation:1.0" xmlns:svg="urn:oasis:names:tc:opendocument:xmlns:svg-compatible:1.0" xml:space="preserve">
 <defs class="ClipPathGroup">
  <clipPath id="presentation_clip_path" clipPathUnits="userSpaceOnUse">
   <rect x="0" y="0" width="1191" height="1191"/>
  </clipPath>
  <clipPath id="presentation_clip_path_shrink" clipPathUnits="userSpaceOnUse">
   <rect x="1" y="1" width="1189" height="1189"/>
  </clipPath>
 </defs>
 <g class="SlideGroup">
  <g>
   <g id="container-id1">
    <g id="id1" class="Slide" clip-path="url(#presentation_clip_path)">
     <g class="Page">
      <g class="Graphic">
       <g id="id3">
        <rect class="BoundingBox" stroke="none" fill="none" x="0" y="0" width="1191" height="1191"/>
        <defs>
         <clipPath id="clip_path_1" clipPathUnits="userSpaceOnUse">
          <path d="M 0,0 L 1190,0 1190,1190 0,1190 0,0 Z"/>
         </clipPath>
        </defs>
        <g clip-path="url(#clip_path_1)">
         <path fill="rgb(0,0,0)" stroke="none" d="M 29,0 C 13,1 0,16 0,35 L 0,1155 C 0,1174 14,1190 30,1190 L 67,1190 67,0 30,0 C 30,0 29,0 29,0 L 29,0 Z"/>
         <path fill="rgb(0,0,0)" stroke="none" d="M 133,0 L 133,1190 172,1190 C 189,1190 203,1174 203,1155 L 203,35 C 203,16 189,0 172,0 L 133,0 133,0 Z"/>
         <path fill="none" stroke="none" d="M 100,1190 L 67,1190 67,0 133,0 133,1190 100,1190 Z"/>
         <path fill="rgb(0,0,0)" stroke="none" d="M 489.0141 424.00514 C 459.0141 424.00514 430.00636 432.00116 404.00636 447.00116 C 378.00636 463.00116 356.99464 485.01011 341.99464 512.01011 C 326.99464 539.01011 318.99863 569.99693 318.99863 600.99693 C 318.99863 631.99693 326.99464 662.98375 341.99464 689.98375 C 356.99464 716.98375 378.00636 739.01085 404.00636 754.01085 C 430.00636 770.01085 459.0141 777.98872 489.0141 777.98872 C 519.0141 777.98872 548.02183 770.01085 574.02183 754.01085 C 599.02183 739.01085 620.98188 716.98375 635.98188 689.98375 C 650.98188 662.98375 658.97789 631.99693 658.97789 600.99693 C 658.97789 569.99693 650.98188 539.01011 635.98188 512.01011 C 620.98188 485.01011 599.02183 463.00116 574.02183 447.00116 C 548.02183 432.00116 519.0141 424.00514 489.0141 424.00514 z M 489.0141 486.99872 C 509.0141 486.99872 524.98798 492.01841 535.98798 503.01841 C 547.98798 513.01841 554.02305 528.0132 554.02305 546.0132 C 554.02305 555.0132 551.97691 564.0246 547.97691 571.0246 C 543.97691 579.0246 537.97813 587.00246 527.97813 595.00246 L 518.00458 603.01231 C 512.00458 608.01231 507.98211 612.99848 504.98211 617.99848 C 501.98211 621.99848 501.00303 627.01817 501.00303 634.01817 L 466.01808 634.01817 C 467.01808 624.01817 468.97625 614.9914 473.97625 606.9914 C 477.97625 598.9914 484.99318 591.97723 492.99318 584.97723 C 501.99318 577.97723 509.01011 571.01198 512.01011 566.01198 C 516.01011 560.01198 518.00458 553.99506 518.00458 546.99506 C 518.00458 538.99506 515.97658 531.99628 510.97658 526.99628 C 505.97658 521.99628 498.99595 518.98643 489.99595 518.98643 C 480.99595 518.98643 473.98179 521.97813 467.98179 527.97813 C 461.98179 532.97813 459.00824 540.99229 458.00824 549.99229 L 421.98976 549.99229 C 423.98976 529.99229 431.02207 515.00026 443.02207 504.00026 C 455.02207 493.00026 470.0141 486.99872 489.0141 486.99872 z M 466.01808 657.01418 L 501.98488 657.01418 L 501.98488 694.99636 L 466.01808 694.99636 L 466.01808 657.01418 Z"/>
         <path fill="none" stroke="rgb(0,0,0)" stroke-width="2" stroke-linejoin="miter" d="M 554,546 C 554,555 552,564 548,571 544,579 538,587 528,595 L 518,603 C 512,608 508,613 505,618 502,622 501,627 501,634 L 466,634 C 467,624 469,615 474,607 478,599 485,592 493,585 502,578 509,571 512,566 516,560 518,554 518,547 518,539 516,532 511,527 506,522 499,519 490,519 481,519 474,522 468,528 462,533 459,541 458,550 L 422,550 C 424,530 431,515 443,504 455,493 470,487 489,487 509,487 525,492 536,503 548,513 554,528 554,546 Z"/> 
         <path fill="none" stroke="rgb(0,0,0)" stroke-width="2" stroke-linejoin="miter" d="M 466,695 L 466,657 502,657 502,695 466,695 Z"/>
         <path fill="rgb(0,0,0)" stroke="none" d="M 571,244 C 563,244 555,244 547,244 703,256 827,409 827,595 827,781 703,934 547,946 555,946 563,946 571,946 772,946 934,789 934,595 934,401 772,244 571,244 L 571,244 Z"/>
         <path fill="rgb(0,0,0)" stroke="none" d="M 1058,595 C 1058,921 807,1186 496,1190 880,1187 1190,922 1190,595 1190,268 880,3 496,0 807,4 1058,269 1058,595 Z"/>
        </g>
       </g>
      </g>
     </g>
    </g>
   </g>
  </g>
 </g>
</svg>
