/* XPM */
static char * MediaInfo_xpm[] = {
"32 32 204 2",
"  	c None",
". 	c #555555",
"+ 	c #4B4B4B",
"@ 	c #042FA8",
"# 	c #23AA31",
"$ 	c #28BB20",
"% 	c #D32424",
"& 	c #414141",
"* 	c #0534B0",
"= 	c #27B035",
"- 	c #2CC124",
"; 	c #D72828",
"> 	c #D93333",
", 	c #383838",
"' 	c #0539B7",
") 	c #2BB639",
"! 	c #30C828",
"~ 	c #DB2C2C",
"{ 	c #DD3737",
"] 	c #2E2E2F",
"^ 	c #2E2E2E",
"/ 	c #2F2F2F",
"( 	c #154BC2",
"_ 	c #063EBF",
": 	c #2FBC3D",
"< 	c #35CE2B",
"[ 	c #DF3030",
"} 	c #E03B3B",
"| 	c #262626",
"1 	c #252525",
"2 	c #262727",
"3 	c #272727",
"4 	c #1751CA",
"5 	c #0643C7",
"6 	c #32C241",
"7 	c #39D42E",
"8 	c #E23434",
"9 	c #E44040",
"0 	c #1E1E1E",
"a 	c #1E1E1F",
"b 	c #1F1F1F",
"c 	c #1957D0",
"d 	c #0648CE",
"e 	c #36C745",
"f 	c #3DD932",
"g 	c #E63737",
"h 	c #E74444",
"i 	c #171717",
"j 	c #1A5CD7",
"k 	c #074CD4",
"l 	c #39CC49",
"m 	c #40DE35",
"n 	c #E93A3A",
"o 	c #EA4848",
"p 	c #6E6E6E",
"q 	c #595959",
"r 	c #4C4C4C",
"s 	c #353535",
"t 	c #111011",
"u 	c #101111",
"v 	c #101010",
"w 	c #111111",
"x 	c #1C61DC",
"y 	c #0850DA",
"z 	c #3CD04C",
"A 	c #44E337",
"B 	c #EC3E3E",
"C 	c #ED4C4C",
"D 	c #565656",
"E 	c #707070",
"F 	c #9D9D9D",
"G 	c #BFBFBF",
"H 	c #969696",
"I 	c #363636",
"J 	c #0A0A0B",
"K 	c #0B0A0A",
"L 	c #0B0B0B",
"M 	c #1D65E1",
"N 	c #0854E0",
"O 	c #3FD44F",
"P 	c #47E73A",
"Q 	c #EF4141",
"R 	c #F05050",
"S 	c #3E3E3E",
"T 	c #515151",
"U 	c #838383",
"V 	c #E8E8E8",
"W 	c #989898",
"X 	c #CCCCCC",
"Y 	c #8D8D8D",
"Z 	c #151515",
"` 	c #090909",
" .	c #050505",
"..	c #1E69E6",
"+.	c #0857E4",
"@.	c #41D851",
"#.	c #4AEA3C",
"$.	c #F14343",
"%.	c #F25252",
"&.	c #5E5E5E",
"*.	c #777777",
"=.	c #B0B0B0",
"-.	c #959595",
";.	c #131313",
">.	c #060606",
",.	c #010101",
"'.	c #1F6CE9",
").	c #0959E8",
"!.	c #43DA53",
"~.	c #4BED3E",
"{.	c #F34545",
"].	c #F35555",
"^.	c #303030",
"/.	c #393939",
"(.	c #8E8E8E",
"_.	c #C8C8C8",
":.	c #323232",
"<.	c #0C0C0C",
"[.	c #030303",
"}.	c #1F6AE7",
"|.	c #0958E6",
"1.	c #42D952",
"2.	c #4AEB3D",
"3.	c #F24343",
"4.	c #F25353",
"5.	c #080808",
"6.	c #C7C7C7",
"7.	c #444444",
"8.	c #070707",
"9.	c #1F67E3",
"0.	c #0855E1",
"a.	c #40D650",
"b.	c #48E83B",
"c.	c #F04141",
"d.	c #F15151",
"e.	c #040404",
"f.	c #161616",
"g.	c #282828",
"h.	c #0F0F0F",
"i.	c #0F0E0F",
"j.	c #0E0E0E",
"k.	c #2164DF",
"l.	c #0852DC",
"m.	c #3DD24D",
"n.	c #45E439",
"o.	c #ED3F3F",
"p.	c #EE4D4D",
"q.	c #000000",
"r.	c #646464",
"s.	c #1C1C1C",
"t.	c #020202",
"u.	c #141414",
"v.	c #2261DA",
"w.	c #074ED7",
"x.	c #3ACD4A",
"y.	c #42E036",
"z.	c #EA3C3C",
"A.	c #EB4949",
"B.	c #1B1B1B",
"C.	c #215CD4",
"D.	c #0749D0",
"E.	c #37C946",
"F.	c #3EDB33",
"G.	c #E73939",
"H.	c #E84545",
"I.	c #242424",
"J.	c #232424",
"K.	c #232323",
"L.	c #1C55CD",
"M.	c #0645CA",
"N.	c #34C343",
"O.	c #3AD630",
"P.	c #E43535",
"Q.	c #E54141",
"R.	c #2C2C2C",
"S.	c #2B2B2B",
"T.	c #2B2B2C",
"U.	c #164EC5",
"V.	c #0640C1",
"W.	c #30BE3F",
"X.	c #36D02C",
"Y.	c #E03131",
"Z.	c #E13D3D",
"`.	c #343435",
" +	c #343434",
".+	c #063BBA",
"++	c #2CB93B",
"@+	c #32CA29",
"#+	c #DC2D2D",
"$+	c #DE3737",
"%+	c #3F3F3F",
"&+	c #0536B2",
"*+	c #29B237",
"=+	c #2EC425",
"-+	c #D82929",
";+	c #484848",
">+	c #474747",
",+	c #0431AB",
"'+	c #25AC33",
")+	c #29BD22",
"!+	c #D52626",
"~+	c #5C5C5C",
"{+	c #5B5B5C",
"]+	c #666666",
"                                                                ",
"                                                                ",
"                                                                ",
"                                          . .                   ",
"                                              + +               ",
"    @ # $ %                                     & & &           ",
"    * = - ; >                                     , , ,         ",
"    ' ) ! ~ {                   ] ^                 / / /       ",
"  ( _ : < [ }                       | | 1           2 3 3       ",
"  4 5 6 7 8 9                         0 0 0           a 0 b     ",
"  c d e f g h                           i i i         i i i     ",
"  j k l m n o           p q r s 1         t u v         w w w   ",
"  x y z A B C         D E F G H I w       J K L         L L L   ",
"  M N O P Q R       S T U V W X Y Z `        . . .       . . .  ",
"  ..+.@.#.$.%.      3 S &.*.q =.-.;.>.      ,.,.,.      ,.,.,.  ",
"  '.).!.~.{.].      i 1 ^./.(._.:.<. .      [.[.[.      [.[.[.  ",
"  }.|.1.2.3.4.      5.v i | 6.7.v 8.[.      ` ` `       5.5.5.  ",
"  9.0.a.b.c.d.      ,.e.5.f.Y g.5. .,.      h.h.i.      j.j.j.  ",
"  k.l.m.n.o.p.        q.[.j.r.s.>.t.q.      Z u.        u.u.u.  ",
"  v.w.x.y.z.A.        [.,.e.5.>.t.[.      s.s.s.        B.B.B.  ",
"  C.D.E.F.G.H.             .e.>.          I.J.        K.K.K.K.  ",
"  L.M.N.O.P.Q.                          R.R.S.        R.T.S.    ",
"  U.V.W.X.Y.Z.                        s s             `. + +    ",
"    .+++@+#+$+                    %+S S             S S S       ",
"    &+*+=+-+                                      ;+>+>+        ",
"    ,+'+)+!+                                      T T T         ",
"                                                ~+{+            ",
"                                            ]+]+]+              ",
"                                                                ",
"                                                                ",
"                                                                ",
"                                                                "};
