/* XPM */
static char * File_Open_Directory_xpm[] = {
"32 32 568 2",
"  	c None",
". 	c #F0F0F0",
"+ 	c #A1A1A1",
"@ 	c #DCDCDC",
"# 	c #EDEDEE",
"$ 	c #ACA4CA",
"% 	c #5B4D9D",
"& 	c #6C5E98",
"* 	c #000000",
"= 	c #171717",
"- 	c #696969",
"; 	c #D4D4D4",
"> 	c #EFEFEF",
", 	c #CAC6DB",
"' 	c #9187C0",
") 	c #6B5FB8",
"! 	c #7067C8",
"~ 	c #7771DC",
"{ 	c #453F89",
"] 	c #3F2F81",
"^ 	c #7F90A4",
"/ 	c #7194BF",
"( 	c #6C7785",
"_ 	c #181818",
": 	c #5D5D5D",
"< 	c #CCCCCC",
"[ 	c #EAEAED",
"} 	c #A8A0C8",
"| 	c #8379B2",
"1 	c #5A50A4",
"2 	c #5B53B2",
"3 	c #6862C6",
"4 	c #736DDC",
"5 	c #7B75DE",
"6 	c #8A85E2",
"7 	c #6C65DB",
"8 	c #24205E",
"9 	c #3F317D",
"0 	c #7499C3",
"a 	c #F4F9FC",
"b 	c #ABC1DC",
"c 	c #7C9DC4",
"d 	c #657890",
"e 	c #0C0C0D",
"f 	c #313131",
"g 	c #E8E8E8",
"h 	c #8D84BB",
"i 	c #6861CB",
"j 	c #5D57AE",
"k 	c #3D397E",
"l 	c #393381",
"m 	c #46419E",
"n 	c #5953C1",
"o 	c #6B64DB",
"p 	c #7A74DE",
"q 	c #706DC6",
"r 	c #605AC4",
"s 	c #221F5B",
"t 	c #453C89",
"u 	c #C7DEED",
"v 	c #E4F2F7",
"w 	c #F5FAFC",
"x 	c #FCFDFE",
"y 	c #5380B6",
"z 	c #444648",
"A 	c #686868",
"B 	c #7266A9",
"C 	c #615AD0",
"D 	c #3F3A91",
"E 	c #1E1A4D",
"F 	c #35317F",
"G 	c #3F3A95",
"H 	c #363085",
"I 	c #312975",
"J 	c #3F3485",
"K 	c #5A4C98",
"L 	c #6B64CD",
"M 	c #221E5A",
"N 	c #494B92",
"O 	c #87B0D0",
"P 	c #CFE6F1",
"Q 	c #E2F0F7",
"R 	c #8BAACD",
"S 	c #707780",
"T 	c #373737",
"U 	c #EDEDED",
"V 	c #645DD4",
"W 	c #38337E",
"X 	c #1E165A",
"Y 	c #322872",
"Z 	c #70639A",
"` 	c #9A7982",
" .	c #B48A6A",
"..	c #B17C51",
"+.	c #764751",
"@.	c #6B65CC",
"#.	c #484C93",
"$.	c #547EAB",
"%.	c #517BAC",
"&.	c #6D96C0",
"*.	c #5F84B0",
"=.	c #D0D0D0",
"-.	c #665FD9",
";.	c #221E4D",
">.	c #A198C3",
",.	c #B27F55",
"'.	c #C77423",
").	c #E48F32",
"!.	c #F09A38",
"~.	c #AD6D53",
"{.	c #5B60A1",
"].	c #97C9E1",
"^.	c #75A5CA",
"/.	c #4575AB",
"(.	c #656B72",
"_.	c #403C39",
":.	c #D0B9A9",
"<.	c #C6AA95",
"[.	c #EFEEEE",
"}.	c #221E4C",
"|.	c #A094B8",
"1.	c #D9CABE",
"2.	c #A05920",
"3.	c #FFA740",
"4.	c #B06F54",
"5.	c #545EA2",
"6.	c #87C3DE",
"7.	c #98CCE3",
"8.	c #5B89B6",
"9.	c #3C3834",
"0.	c #804E1E",
"a.	c #C97B2B",
"b.	c #8D430A",
"c.	c #EAE6E3",
"d.	c #E8E3DF",
"e.	c #A97248",
"f.	c #A86D3E",
"g.	c #A36330",
"h.	c #593969",
"i.	c #7C4646",
"j.	c #B76C29",
"k.	c #DC8932",
"l.	c #48559D",
"m.	c #74BAD9",
"n.	c #85C2DE",
"o.	c #507DA8",
"p.	c #241E18",
"q.	c #D58B35",
"r.	c #A56024",
"s.	c #D4C1B3",
"t.	c #B86A23",
"u.	c #F9A23D",
"v.	c #774F70",
"w.	c #221F4C",
"x.	c #FAA23C",
"y.	c #AF6D4A",
"z.	c #7663AA",
"A.	c #412B46",
"B.	c #594562",
"C.	c #5D6A6E",
"D.	c #5699C4",
"E.	c #45729F",
"F.	c #16120D",
"G.	c #E29439",
"H.	c #A56026",
"I.	c #9D5E2D",
"J.	c #A3622E",
"K.	c #A4632C",
"L.	c #9F5619",
"M.	c #D98A33",
"N.	c #EB9A3E",
"O.	c #E2953E",
"P.	c #B37950",
"Q.	c #B77F5C",
"R.	c #B17A42",
"S.	c #C98C4D",
"T.	c #D49652",
"U.	c #D69A58",
"V.	c #D9A062",
"W.	c #DAA467",
"X.	c #DEA96E",
"Y.	c #DEAE7A",
"Z.	c #DFB286",
"`.	c #E1B586",
" +	c #EBC59C",
".+	c #B66D1D",
"++	c #2E5C8C",
"@+	c #3A5C83",
"#+	c #1C1610",
"$+	c #E19338",
"%+	c #A4612A",
"&+	c #BE9069",
"*+	c #FFEEDA",
"=+	c #FEDFBB",
"-+	c #FDDEBB",
";+	c #FCDAB2",
">+	c #FBD6AA",
",+	c #FBD3A5",
"'+	c #FCD1A0",
")+	c #FDCF9A",
"!+	c #FFCF97",
"~+	c #FFCD94",
"{+	c #FFCA8C",
"]+	c #FFC888",
"^+	c #FFC683",
"/+	c #FFC37D",
"(+	c #FFC179",
"_+	c #E8B170",
":+	c #CD9E67",
"<+	c #C59762",
"[+	c #D4AC7D",
"}+	c #BE8946",
"|+	c #63A8C6",
"1+	c #2E6294",
"2+	c #1F1913",
"3+	c #D08834",
"4+	c #A4622C",
"5+	c #BC8B63",
"6+	c #FFD09A",
"7+	c #FFB865",
"8+	c #C39661",
"9+	c #948C82",
"0+	c #B6B1AC",
"a+	c #D0CECD",
"b+	c #C4C2BF",
"c+	c #9C9891",
"d+	c #6E7C82",
"e+	c #376792",
"f+	c #231D17",
"g+	c #BA7A2E",
"h+	c #A4642E",
"i+	c #B7845B",
"j+	c #FFD099",
"k+	c #FFB661",
"l+	c #FBB460",
"m+	c #99846C",
"n+	c #C8C6C2",
"o+	c #D3D3D3",
"p+	c #908F8D",
"q+	c #929597",
"r+	c #8C8E92",
"s+	c #9F9D9A",
"t+	c #D8D9D9",
"u+	c #83878C",
"v+	c #373430",
"w+	c #B2742C",
"x+	c #A46531",
"y+	c #B47E51",
"z+	c #FFCE96",
"A+	c #FFB45C",
"B+	c #99856B",
"C+	c #DBDAD9",
"D+	c #969593",
"E+	c #9EA8B1",
"F+	c #BABCBE",
"G+	c #C9BCAE",
"H+	c #D0BBA4",
"I+	c #D2C0AD",
"J+	c #AAA49D",
"K+	c #717D8B",
"L+	c #BDBFC2",
"M+	c #8C8C8C",
"N+	c #986C3A",
"O+	c #F7A13C",
"P+	c #A97042",
"Q+	c #B1794C",
"R+	c #FECD93",
"S+	c #FFB258",
"T+	c #C8955A",
"U+	c #CAC8C4",
"V+	c #A9B7C3",
"W+	c #D1CCC6",
"X+	c #E0CEB9",
"Y+	c #E5C39B",
"Z+	c #E1B886",
"`+	c #E1BE93",
" @	c #CCAC85",
".@	c #718A9E",
"+@	c #6A7B8F",
"@@	c #C4C3C3",
"#@	c #857B71",
"$@	c #E49236",
"%@	c #B78761",
"&@	c #AC7244",
"*@	c #FECD94",
"=@	c #FFB053",
"-@	c #998E82",
";@	c #DAD9D9",
">@	c #9EAAB7",
",@	c #D8D7D4",
"'@	c #EDE1D3",
")@	c #F2E0CA",
"!@	c #F0D9BF",
"~@	c #E4BE91",
"{@	c #E1BB8C",
"]@	c #D3B087",
"^@	c #80959D",
"/@	c #4F6881",
"(@	c #6A6F77",
"_@	c #CDC8C2",
":@	c #A27546",
"<@	c #C2A085",
"[@	c #AA7043",
"}@	c #FDCB91",
"|@	c #FDAC4E",
"1@	c #FDAC4D",
"2@	c #FDAB4D",
"3@	c #FDAA49",
"4@	c #FDA947",
"5@	c #EA9F47",
"6@	c #BBB6B0",
"7@	c #959390",
"8@	c #C4CDD8",
"9@	c #E8E1D9",
"0@	c #F2DFC8",
"a@	c #E8C79F",
"b@	c #E0B583",
"c@	c #D5B38B",
"d@	c #7F8281",
"e@	c #4B5562",
"f@	c #787572",
"g@	c #D1CDC7",
"h@	c #837465",
"i@	c #CFB9A8",
"j@	c #AF7649",
"k@	c #F9C991",
"l@	c #F7A445",
"m@	c #F7A443",
"n@	c #F7A13F",
"o@	c #F79F3B",
"p@	c #F79F3A",
"q@	c #C88940",
"r@	c #CECCC9",
"s@	c #8C9198",
"t@	c #D4D6D7",
"u@	c #EADFD0",
"v@	c #F0DCC6",
"w@	c #F0DCC5",
"x@	c #E3C096",
"y@	c #DBAF79",
"z@	c #D5B28A",
"A@	c #8E7B66",
"B@	c #3D454F",
"C@	c #B19573",
"D@	c #A8A096",
"E@	c #8A7F76",
"F@	c #DBCDC3",
"G@	c #B68962",
"H@	c #F1BF8A",
"I@	c #F29A3C",
"J@	c #F29A3B",
"K@	c #F29837",
"L@	c #F29836",
"M@	c #BC803F",
"N@	c #D3D3D1",
"O@	c #8C939C",
"P@	c #D3D2D3",
"Q@	c #EADBCC",
"R@	c #EED9C2",
"S@	c #EED9C3",
"T@	c #ECD5BB",
"U@	c #DAAC7A",
"V@	c #D8A873",
"W@	c #D5B189",
"X@	c #A28A6F",
"Y@	c #96836C",
"Z@	c #BD9C73",
"`@	c #9D958B",
" #	c #898179",
".#	c #E9E4E0",
"+#	c #C3A38A",
"@#	c #E4B37D",
"##	c #EA9032",
"$#	c #EC9232",
"%#	c #C88339",
"&#	c #C8C4BF",
"*#	c #8A8D92",
"=#	c #C4C4C8",
"-#	c #E4D5C6",
";#	c #EDD7C1",
">#	c #EAD1B6",
",#	c #DCB287",
"'#	c #D4A16C",
")#	c #E3C7AB",
"!#	c #C6AE94",
"~#	c #D3BDA2",
"{#	c #B39471",
"]#	c #B2AAA0",
"^#	c #827871",
"/#	c #D7C7BA",
"(#	c #CE9C6C",
"_#	c #E38F37",
":#	c #E68B2D",
"<#	c #E2892E",
"[#	c #ACA59D",
"}#	c #A9A6A3",
"|#	c #A7B0BF",
"1#	c #C8B4A4",
"2#	c #D9B086",
"3#	c #D3A372",
"4#	c #D09D69",
"5#	c #D09C68",
"6#	c #E3C9AF",
"7#	c #CEB396",
"8#	c #D4BA9A",
"9#	c #938778",
"0#	c #D9D2CA",
"a#	c #78695A",
"b#	c #ECE9E7",
"c#	c #B47E50",
"d#	c #DF9445",
"e#	c #E18529",
"f#	c #94795E",
"g#	c #E2E1E0",
"h#	c #89909A",
"i#	c #B4AEAB",
"j#	c #C3A180",
"k#	c #CC9966",
"l#	c #D5AE88",
"m#	c #C6A583",
"n#	c #AB8C68",
"o#	c #8C867F",
"p#	c #AAA49F",
"q#	c #8D694C",
"r#	c #A76F42",
"s#	c #DA9C5B",
"t#	c #DA7E25",
"u#	c #DB7E25",
"v#	c #CB792A",
"w#	c #A09991",
"x#	c #CDCAC6",
"y#	c #8E96A0",
"z#	c #B3A7A1",
"A#	c #C09E7F",
"B#	c #C79465",
"C#	c #C89464",
"D#	c #CA9A6E",
"E#	c #A78B6D",
"F#	c #797875",
"G#	c #CECAC6",
"H#	c #6B6A69",
"I#	c #6A645D",
"J#	c #E1E1E1",
"K#	c #D3BEAE",
"L#	c #BB814E",
"M#	c #D7924C",
"N#	c #D98A3F",
"O#	c #D98332",
"P#	c #D67C27",
"Q#	c #D57820",
"R#	c #AD6F34",
"S#	c #A8A19B",
"T#	c #D3CECA",
"U#	c #828488",
"V#	c #9A9A9E",
"W#	c #AA9E97",
"X#	c #B09B88",
"Y#	c #A89484",
"Z#	c #8E8985",
"`#	c #88837F",
" $	c #CCC9C5",
".$	c #787776",
"+$	c #C1C1C1",
"@$	c #949494",
"#$	c #5F5C55",
"$$	c #B89070",
"%$	c #A76632",
"&$	c #B16F31",
"*$	c #BB7937",
"=$	c #C3803A",
"-$	c #C6833D",
";$	c #CA843E",
">$	c #CE833C",
",$	c #D08034",
"'$	c #D27C2F",
")$	c #D27827",
"!$	c #B16C2F",
"~$	c #8D847B",
"{$	c #CDC8C4",
"]$	c #D2CCC8",
"^$	c #ADA39B",
"/$	c #A0978F",
"($	c #B5ABA3",
"_$	c #D5CEC7",
":$	c #A6A19C",
"<$	c #6D6C6B",
"[$	c #E0E0E0",
"}$	c #726E61",
"|$	c #B1974D",
"1$	c #B39764",
"2$	c #EAEAEA",
"3$	c #E5E5E5",
"4$	c #D6CDC7",
"5$	c #C4AFA0",
"6$	c #B18A6A",
"7$	c #A36734",
"8$	c #9F5B19",
"9$	c #A96017",
"0$	c #B26719",
"a$	c #B86B1D",
"b$	c #BC7224",
"c$	c #BF772E",
"d$	c #986E46",
"e$	c #87786B",
"f$	c #9A8E84",
"g$	c #9A8F84",
"h$	c #918376",
"i$	c #856C55",
"j$	c #A77140",
"k$	c #6B5F51",
"l$	c #B3B2B2",
"m$	c #787066",
"n$	c #CB8D0D",
"o$	c #DDAC15",
"p$	c #C2A44D",
"q$	c #B59A67",
"r$	c #EEEEEE",
"s$	c #E3E3E3",
"t$	c #DFDFDF",
"u$	c #DADADA",
"v$	c #D5D5D5",
"w$	c #C2BAB3",
"x$	c #B49F90",
"y$	c #A67F62",
"z$	c #9F6634",
"A$	c #9F5818",
"B$	c #A65B11",
"C$	c #AF6313",
"D$	c #B56716",
"E$	c #BA6E1E",
"F$	c #BF7528",
"G$	c #C87F39",
"H$	c #B76E25",
"I$	c #63574A",
"J$	c #B6854A",
"K$	c #EC9616",
"L$	c #E29900",
"M$	c #BA9C48",
"N$	c #D7CBBA",
"O$	c #E7E7E7",
"P$	c #DBDBDB",
"Q$	c #D7D7D7",
"R$	c #D2D2D2",
"S$	c #D1D1D1",
"T$	c #CAC2BB",
"U$	c #BFAA9B",
"V$	c #B18C6E",
"W$	c #A56B3B",
"X$	c #9F5A1B",
"Y$	c #A4570E",
"Z$	c #984901",
"`$	c #B79568",
" %	c #CA944E",
".%	c #E39C07",
"+%	c #C6A148",
"@%	c #D1C2AE",
"#%	c #E9E9E9",
"$%	c #E2E2E2",
"%%	c #E4E4E4",
"&%	c #E6E4E2",
"*%	c #BA996E",
"=%	c #C18D4A",
"-%	c #CB9649",
";%	c #AA8348",
">%	c #EFEFEE",
",%	c #DAD0C2",
"'%	c #D2C5B3",
")%	c #EEEDEC",
". . . . . . . . . . . . . . . . . . . . . . + @ . . . . . . . . ",
". . . . . . . . . . . . . . . . . . # $ % & * = - ; . . . . . . ",
". . . . . . . . . . . . . . > , ' ) ! ~ { ] ^ / ( _ : < . . . . ",
". . . . . . . . . . [ } | 1 2 3 4 5 6 7 8 9 0 a b c d e f g . . ",
". . . . . . . . . h i j k l m n o p q r s t u v w x y z A . . . ",
". . . . . . . . . B C D E F G H I J K L M N O P Q R S T U . . . ",
". . . . . . . . . B V W X Y Z `  ...+.@.M #.$.%.&.*._ =.. . . . ",
". . . . . . . . . B -.;.>.. ,.'.).!.~.@.M {.].^./.(._.:.<.[.. . ",
". . . . . . . . . B -.}.|.1.2.3.3.3.4.@.M 5.6.7.8.9.0.a.b.c.. . ",
". . . . . d.e.f.g.h.-.}.i.j.k.3.3.3.4.@.M l.m.n.o.p.q.3.r.. . . ",
". . . . . s.t.u.3.v.-.w.4.3.3.3.3.x.y.z.A.B.C.D.E.F.G.3.H.. . . ",
". . I.J.K.L.M.N.O.P.Q.R.S.T.U.V.W.X.Y.Z.`. +.+++@+#+$+3.%+. . . ",
". . &+*+=+-+;+>+,+'+)+!+~+{+]+^+/+(+_+:+<+[+}+|+1+2+3+3.4+. . . ",
". . 5+6+7+7+7+7+7+7+7+7+7+7+7+7+8+9+0+a+; b+c+d+e+f+g+3.h+. . . ",
". . i+j+k+k+k+k+k+k+k+k+k+k+l+m+n+o+p+q+q+r+s+t+u+v+w+3.x+. . . ",
". . y+z+A+A+A+A+A+A+A+A+A+A+B+C+D+E+F+G+H+I+J+K+L+M+N+O+P+. . . ",
". . Q+R+S+S+S+S+S+S+S+S+S+T+U+D+V+W+X+Y+Z+`+ @.@+@@@#@$@%@. . . ",
". . &@*@=@=@=@=@=@=@=@=@=@-@;@>@,@'@)@!@~@{@]@^@/@(@_@:@<@. . . ",
". . [@}@|@1@1@1@2@3@4@4@5@6@7@8@9@0@0@0@a@b@c@d@e@f@g@h@i@. . . ",
". . j@k@l@l@m@n@o@p@p@p@q@r@s@t@u@v@v@w@x@y@z@A@B@C@D@E@F@. . . ",
". . G@H@I@J@K@L@L@L@L@L@M@N@O@P@Q@R@S@T@U@V@W@X@Y@Z@`@ #.#. . . ",
". . +#@###$#$#$#$#$#$#$#%#&#*#=#-#;#>#,#'#'#)#!#~#{#]#^#. . . . ",
". . /#(#_#:#:#:#:#:#:#:#<#[#}#|#1#2#3#4#5#5#6#7#8#9#0#a#. . . . ",
". . b#c#d#e#e#e#e#e#e#e#e#f#g#h#i#j#k#k#k#k#l#m#n#o#p#q#. . . . ",
". . . r#s#t#u#u#u#u#u#u#u#v#w#x#y#z#A#B#C#C#D#E#F#G#H#I#J#. . . ",
". . . K#L#M#N#O#P#Q#Q#Q#Q#Q#R#S#T#U#V#W#X#Y#Z#`# $.$+$@$#$. . . ",
". . . . $$%$&$*$=$-$;$>$,$'$)$!$~${$]$^$/$($_$:$<$[$U }$|$1$. . ",
". . . . > 2$3$4$5$6$7$8$9$0$a$b$c$d$e$f$g$h$i$j$k$l$m$n$o$p$q$. ",
". . . . . . r$g s$t$u$v$=.w$x$y$z$A$B$C$D$E$F$G$H$I$J$K$L$o$M$N$",
". . . . . . . . . U O$s$t$P$Q$; R$S$S$T$U$V$W$X$Y$Z$`$ %K$.%+%@%",
". . . . . . . . . . . . . U #%3$s$J#[$[$[$[$$%%%O$&%r$*%=%-%;%>%",
". . . . . . . . . . . . . . . . . . . > > r$> > . . . . ,%'%)%. "};
