/* XPM */
static const char * File_Open_File_xpm[] = {
"32 32 455 2",
"  	c None",
". 	c #20087F",
"+ 	c #322383",
"@ 	c #210D6A",
"# 	c #151515",
"$ 	c #484848",
"% 	c #0E0E0E",
"& 	c #4B3CA4",
"* 	c #6559BE",
"= 	c #7C73D3",
"- 	c #6D69CF",
"; 	c #3C3877",
"> 	c #2B1A6D",
", 	c #91969C",
"' 	c #7498C3",
") 	c #9DAFC4",
"! 	c #5B5B5B",
"~ 	c #0C0C0C",
"{ 	c #0A0A0A",
"] 	c #39288D",
"^ 	c #5247A9",
"/ 	c #655CC3",
"( 	c #756DD9",
"_ 	c #7C77E0",
": 	c #8580E1",
"< 	c #817BD3",
"[ 	c #5751BC",
"} 	c #1B1847",
"| 	c #2F1F6F",
"1 	c #7095C0",
"2 	c #EEF4F9",
"3 	c #CBD9E9",
"4 	c #80A1C9",
"5 	c #7F9BBD",
"6 	c #5B5E62",
"7 	c #0D0D0D",
"8 	c #4337A0",
"9 	c #4D44A0",
"0 	c #554EA1",
"a 	c #534EA0",
"b 	c #514CA1",
"c 	c #504AAB",
"d 	c #5A54C3",
"e 	c #6A63DB",
"f 	c #7871DE",
"g 	c #7E77D1",
"h 	c #5852BD",
"i 	c #3E3385",
"j 	c #A5C4DF",
"k 	c #E7F3F8",
"l 	c #F5FAFC",
"m 	c #FFFFFF",
"n 	c #E5ECF4",
"o 	c #4B7AB3",
"p 	c #88898B",
"q 	c #0B0B0B",
"r 	c #5144A3",
"s 	c #6B65D2",
"t 	c #48429C",
"u 	c #272465",
"v 	c #2D286E",
"w 	c #3C378B",
"x 	c #4C46A8",
"y 	c #5A52C2",
"z 	c #5751BE",
"A 	c #433E92",
"B 	c #37317A",
"C 	c #4C4592",
"D 	c #5C56C7",
"E 	c #474C96",
"F 	c #C8E4F0",
"G 	c #D7EBF4",
"H 	c #E5F2F8",
"I 	c #F3F9FC",
"J 	c #A3BAD7",
"K 	c #9BA8B9",
"L 	c #463794",
"M 	c #625BCF",
"N 	c #443F99",
"O 	c #28266A",
"P 	c #2D2972",
"Q 	c #2C2871",
"R 	c #28226D",
"S 	c #2B2177",
"T 	c #2B1D7C",
"U 	c #5143A1",
"V 	c #5D56C7",
"W 	c #4A4D93",
"X 	c #608AB6",
"Y 	c #85ACD0",
"Z 	c #D0E6F2",
"` 	c #DFEEF6",
" .	c #7293BA",
"..	c #363636",
"+.	c #655ED5",
"@.	c #2E2A71",
"#.	c #30256D",
"$.	c #20106A",
"%.	c #4A569F",
"&.	c #5A88B4",
"*.	c #5C82AB",
"=.	c #5B81AD",
"-.	c #5581B4",
";.	c #7F8995",
">.	c #665FD7",
",.	c #1B184E",
"'.	c #443586",
").	c #5143A0",
"!.	c #5967AA",
"~.	c #98CCE3",
"{.	c #9CCAE2",
"].	c #709DC5",
"^.	c #6485AB",
"/.	c #414141",
"(.	c #443486",
"_.	c #51439F",
":.	c #5165A8",
"<.	c #88C4DF",
"[.	c #96CBE3",
"}.	c #9FCDE4",
"|.	c #5D7EA3",
"1.	c #101010",
"2.	c #453586",
"3.	c #50429E",
"4.	c #4A61A7",
"5.	c #78BCDA",
"6.	c #86C3DE",
"7.	c #7CB4D6",
"8.	c #657991",
"9.	c #050505",
"0.	c #504593",
"a.	c #5954A2",
"b.	c #2E2C4A",
"c.	c #3A477F",
"d.	c #5397C0",
"e.	c #76BBDA",
"f.	c #65A2CB",
"g.	c #596777",
"h.	c #090909",
"i.	c #443286",
"j.	c #878787",
"k.	c #ACACB1",
"l.	c #CACACC",
"m.	c #D1D1D1",
"n.	c #BABBBE",
"o.	c #909396",
"p.	c #606C78",
"q.	c #326598",
"r.	c #58616C",
"s.	c #080808",
"t.	c #433284",
"u.	c #6F6F6F",
"v.	c #C8C8C8",
"w.	c #D4D4D4",
"x.	c #818492",
"y.	c #7A859E",
"z.	c #727F92",
"A.	c #758192",
"B.	c #969EA3",
"C.	c #D8D9D9",
"D.	c #83878B",
"E.	c #5B5C5E",
"F.	c #070707",
"G.	c #443386",
"H.	c #6D6B72",
"I.	c #D9D9DA",
"J.	c #898C97",
"K.	c #7C8EB6",
"L.	c #8499D3",
"M.	c #8193DE",
"N.	c #5B6C9A",
"O.	c #6F90CA",
"P.	c #7EAFD2",
"Q.	c #75899A",
"R.	c #C0C4C6",
"S.	c #8E8F91",
"T.	c #1E1E1E",
"U.	c #433285",
"V.	c #443A67",
"W.	c #C6C5C8",
"X.	c #93969E",
"Y.	c #9AB3E0",
"Z.	c #A9BAEF",
"`.	c #9AA4D5",
" +	c #7B84C0",
".+	c #444D7C",
"++	c #6180BF",
"@+	c #75B8DF",
"#+	c #77B8DD",
"$+	c #738DA1",
"%+	c #C6C7C9",
"&+	c #6C6C6C",
"*+	c #453595",
"=+	c #413184",
"-+	c #83818E",
";+	c #D7D7D7",
">+	c #9AB0CE",
",+	c #CBD9F5",
"'+	c #D3D9F6",
")+	c #C5C8F1",
"!+	c #ACB0D5",
"~+	c #59628B",
"{+	c #506AAE",
"]+	c #6BAED8",
"^+	c #74B8DF",
"/+	c #73B2D9",
"(+	c #6C7682",
"_+	c #BCBCBC",
":+	c #595959",
"<+	c #4C3DA8",
"[+	c #5C52BA",
"}+	c #463CA1",
"|+	c #372D7F",
"1+	c #6059CA",
"2+	c #B2B2B8",
"3+	c #8C919C",
"4+	c #BAD0F2",
"5+	c #D8E0F8",
"6+	c #D0D3F5",
"7+	c #B9BDDC",
"8+	c #7B82A2",
"9+	c #4D62A2",
"0+	c #466A91",
"a+	c #4A7AA9",
"b+	c #5793C4",
"c+	c #5E7389",
"d+	c #C2C2C2",
"e+	c #6E6E6E",
"f+	c #25137E",
"g+	c #A6A1DA",
"h+	c #E8E7FA",
"i+	c #BBB8EE",
"j+	c #8C87E3",
"k+	c #5C55C5",
"l+	c #3F3A8F",
"m+	c #403184",
"n+	c #362B65",
"o+	c #CBCACD",
"p+	c #818DA6",
"q+	c #C3D2F4",
"r+	c #D1D7F6",
"s+	c #C9CCF3",
"t+	c #BFC3E8",
"u+	c #B5B9D3",
"v+	c #848CAB",
"w+	c #5F84C3",
"x+	c #5A96C6",
"y+	c #4B79A7",
"z+	c #486788",
"A+	c #556273",
"B+	c #8F9090",
"C+	c #828282",
"D+	c #5C53B8",
"E+	c #C3C0F0",
"F+	c #D8D6F6",
"G+	c #BFBCF0",
"H+	c #9893E6",
"I+	c #6D66DB",
"J+	c #413C93",
"K+	c #D1D1D2",
"L+	c #7F8CA9",
"M+	c #B8C7F0",
"N+	c #C7CCF0",
"O+	c #BEC2E5",
"P+	c #B7BBD8",
"Q+	c #A2A7BD",
"R+	c #757CAB",
"S+	c #6CA6D7",
"T+	c #73B8E0",
"U+	c #8EC6E6",
"V+	c #598CBC",
"W+	c #55606E",
"X+	c #848687",
"Y+	c #838383",
"Z+	c #675ECE",
"`+	c #9D98E7",
" @	c #ADA9EB",
".@	c #A39FE9",
"+@	c #8983E2",
"@@	c #665FD9",
"#@	c #3B3789",
"$@	c #272453",
"%@	c #433484",
"&@	c #C2C2C4",
"*@	c #778295",
"=@	c #9AAED7",
"-@	c #B3BAD7",
";@	c #B2B6CE",
">@	c #A3A8BF",
",@	c #878EB2",
"'@	c #6785C0",
")@	c #79BBE2",
"!@	c #A1D0EA",
"~@	c #A9D4EC",
"{@	c #91ADC9",
"]@	c #4F5A67",
"^@	c #A1A1A1",
"/@	c #7B7B7B",
"(@	c #433C9A",
"_@	c #726BDD",
":@	c #807BE0",
"<@	c #7D77DF",
"[@	c #6C65DB",
"}@	c #4F49AD",
"|@	c #2B2769",
"1@	c #47456B",
"2@	c #26166D",
"3@	c #9C9C9C",
"4@	c #9C9DA0",
"5@	c #849DCC",
"6@	c #8190BF",
"7@	c #7E81B1",
"8@	c #686CA8",
"9@	c #516FAA",
"0@	c #6EA9D3",
"a@	c #7FBFE3",
"b@	c #ADD6ED",
"c@	c #99BFDD",
"d@	c #909EAC",
"e@	c #5B646F",
"f@	c #D0D0D0",
"g@	c #676767",
"h@	c #1F0E68",
"i@	c #514BB1",
"j@	c #443F9A",
"k@	c #2D296F",
"l@	c #24214E",
"m@	c #514882",
"n@	c #13101F",
"o@	c #343434",
"p@	c #64696E",
"q@	c #DDDEDF",
"r@	c #7A8EA5",
"s@	c #94BEE4",
"t@	c #95C2E2",
"u@	c #6E9EC7",
"v@	c #597CA3",
"w@	c #5F7B9B",
"x@	c #588CBC",
"y@	c #82B6DC",
"z@	c #809CBA",
"A@	c #4E5967",
"B@	c #77797D",
"C@	c #A4A4A4",
"D@	c #201266",
"E@	c #1D1851",
"F@	c #201D57",
"G@	c #181548",
"H@	c #38355F",
"I@	c #4E4684",
"J@	c #4F5E9A",
"K@	c #5F83AC",
"L@	c #6289B3",
"M@	c #4D7AAB",
"N@	c #4A617D",
"O@	c #979A9D",
"P@	c #C9CCCC",
"Q@	c #869EB6",
"R@	c #97BDDF",
"S@	c #92BCDC",
"T@	c #7BAACD",
"U@	c #557EAA",
"V@	c #69798E",
"W@	c #5C7B9F",
"X@	c #626F7D",
"Y@	c #686E74",
"Z@	c #CDCDCD",
"`@	c #6B6B6B",
" #	c #62605C",
".#	c #2A1D65",
"+#	c #291E59",
"@#	c #382F5F",
"##	c #4C6997",
"$#	c #D5E4ED",
"%#	c #E1F1F8",
"&#	c #D9EDF6",
"*#	c #CBE3EE",
"=#	c #4F77A0",
"-#	c #516072",
";#	c #A1A3A5",
">#	c #D0D2D3",
",#	c #7D8A99",
"'#	c #8BA9C4",
")#	c #8DB2D1",
"!#	c #779FC4",
"~#	c #6C88A8",
"{#	c #717E8C",
"]#	c #75787C",
"^#	c #CBCBCB",
"/#	c #767676",
"(#	c #C0C0C0",
"_#	c #949494",
":#	c #645C4F",
"<#	c #56575A",
"[#	c #53749C",
"}#	c #D7E3E9",
"|#	c #E2F1F8",
"1#	c #DAEEF6",
"2#	c #C5DDE9",
"3#	c #496F9A",
"4#	c #516275",
"5#	c #84888B",
"6#	c #CBCDCE",
"7#	c #989DA3",
"8#	c #8D9297",
"9#	c #A2A2A2",
"0#	c #6D6D6D",
"a#	c #E1E1E1",
"b#	c #EDEDED",
"c#	c #726D60",
"d#	c #B19748",
"e#	c #8F610D",
"f#	c #62676D",
"g#	c #6486AD",
"h#	c #EAF4FA",
"i#	c #E3F2F8",
"j#	c #C9E0EF",
"k#	c #89AFD1",
"l#	c #3D6799",
"m#	c #61768D",
"n#	c #58687B",
"o#	c #747677",
"p#	c #858585",
"q#	c #7C7C7C",
"r#	c #747474",
"s#	c #626262",
"t#	c #605D58",
"u#	c #B4B3B2",
"v#	c #787065",
"w#	c #CC8E0D",
"x#	c #DEAC15",
"y#	c #C1A146",
"z#	c #6D7681",
"A#	c #5C7899",
"B#	c #597697",
"C#	c #5C7695",
"D#	c #616D7C",
"E#	c #5F6061",
"F#	c #4B4B4B",
"G#	c #222222",
"H#	c #645B4F",
"I#	c #B68548",
"J#	c #ED9616",
"K#	c #E39900",
"L#	c #DEAD15",
"M#	c #B99741",
"N#	c #030303",
"O#	c #93590C",
"P#	c #C99046",
"Q#	c #EC9716",
"R#	c #E39C06",
"S#	c #C59F45",
"T#	c #BE863F",
"U#	c #C99343",
"V#	c #97661A",
"                                                                ",
"                                                                ",
"                                      . + @ # $ %               ",
"                                & * = - ; > , ' ) ! ~ {         ",
"                        ] ^ / ( _ : < [ } | 1 2 3 4 5 6 ~ 7     ",
"                8 9 0 a b c d e f : g h } i j k l m n o p q     ",
"              r s t u v w x y z A B C D } E F G H I J K ~       ",
"              L M N O P Q R S T     U V } W X Y Z `  ...        ",
"              L +.@.#.$.            U V } %.&.*.=.-.;.q         ",
"              L >.,.'.              ).V } !.~.{.].^./.          ",
"              L >.,.(.              _.V } :.<.[.}.|.1.          ",
"              L >.,.2.              3.V } 4.5.6.7.8.9.          ",
"              L >.,.(.              0.a.b.c.d.e.f.g.h.          ",
"              L >.,.i.            j.k.l.m.n.o.p.q.r.s.          ",
"              L >.,.t.        u.v.w.x.y.z.A.B.C.D.E.F.          ",
"              L >.,.G.      H.I.J.K.L.M.N.O.P.Q.R.S.T.          ",
"              L >.,.U.    V.W.X.Y.Z.`. +.+++@+#+$+%+&+          ",
"              *+>.,.=+    -+;+>+,+'+)+!+~+{+]+^+/+(+_+:+        ",
"        <+[+}+|+1+,.=+    2+3+4+5+6+)+7+8+9+0+a+b+c+d+e+        ",
"    f+g+h+i+j+k+l+,.m+  n+o+p+q+r+s+t+u+v+w+x+y+z+A+B+C+        ",
"    D+E+F+G+H+I+J+,.t.    K+L+M+N+O+P+Q+R+S+T+U+V+W+X+Y+        ",
"    Z+`+ @.@+@@@#@$@%@    &@*@=@-@;@>@,@'@)@!@~@{@]@^@/@        ",
"    (@_@:@<@[@}@|@1@2@  s.3@4@5@6@7@8@9@0@a@b@c@d@e@f@g@        ",
"    h@J+i@i@j@k@l@m@n@T.o@p@q@r@s@t@u@v@w@x@y@z@A@B@C@          ",
"      D@E@F@G@H@I@J@K@L@M@N@O@P@Q@R@S@T@U@V@W@X@Y@Z@`@ #        ",
"          .#+#@###$#%#&#*#=#-#;#>#,#'#)#!#~#{#]#^#/#(#_#:#      ",
"              9.<#[#}#|#1#2#3#4#5#6#6#7#8#C@v.9#0#a#b#c#d#e#    ",
"                F.f#g#h#i#j#k#l#m#n#o#p#q#r#s#  t#u#v#w#x#y#e#  ",
"                  q z#A#B#C#D#E#F#G#9.h.          H#I#J#K#L#M#  ",
"                    q ~ q h.q ~ N#                  O#P#Q#R#S#  ",
"                                                      O#T#U#V#  ",
"                                                                "};
