/* XPM */
static char * File_Open_File_xpm[] = {
"32 32 513 2",
"  	c None",
". 	c #F0F0F0",
"+ 	c #777777",
"@ 	c #979797",
"# 	c #ECECEC",
"$ 	c #D5D2E0",
"% 	c #867AB7",
"& 	c #41338C",
"* 	c #70649F",
"= 	c #000000",
"- 	c #444444",
"; 	c #202020",
"> 	c #8B8B8B",
", 	c #E7E7E7",
"' 	c #E2E1E8",
") 	c #B0A9CD",
"! 	c #786EB9",
"~ 	c #6B60C0",
"{ 	c #7B73D3",
"] 	c #6E68CE",
"^ 	c #3B3776",
"/ 	c #2E1D6F",
"( 	c #91969C",
"_ 	c #6990BF",
": 	c #96A8BE",
"< 	c #595959",
"[ 	c #1A1A1A",
"} 	c #7F7F7F",
"| 	c #E2E2E2",
"1 	c #AEA7CD",
"2 	c #6C63A9",
"3 	c #5C51AF",
"4 	c #675FC4",
"5 	c #736DDB",
"6 	c #7D76DF",
"7 	c #847FE1",
"8 	c #8079D2",
"9 	c #5650BC",
"0 	c #1A1747",
"a 	c #2E1D6D",
"b 	c #7094BF",
"c 	c #ECF3F8",
"d 	c #C6D5E7",
"e 	c #7FA0C8",
"f 	c #859FBE",
"g 	c #606366",
"h 	c #171717",
"i 	c #666666",
"j 	c #DFDFDF",
"k 	c #BAB5D4",
"l 	c #5345A8",
"m 	c #5148A5",
"n 	c #564EA3",
"o 	c #544FA1",
"p 	c #514BA1",
"q 	c #4D49A9",
"r 	c #5A54C3",
"s 	c #6963DA",
"t 	c #7771DE",
"u 	c #8580E1",
"v 	c #7C76CF",
"w 	c #5751BE",
"x 	c #1A1746",
"y 	c #3A2F84",
"z 	c #A4C3DE",
"A 	c #E6F2F8",
"B 	c #F4F9FC",
"C 	c #FFFFFF",
"D 	c #E5ECF4",
"E 	c #386CAB",
"F 	c #868787",
"G 	c #E1E1E1",
"H 	c #5E50A7",
"I 	c #6A65D2",
"J 	c #46429C",
"K 	c #282466",
"L 	c #2C286D",
"M 	c #3C378B",
"N 	c #4C46A8",
"O 	c #5952C2",
"P 	c #433D92",
"Q 	c #373179",
"R 	c #4A4291",
"S 	c #5C56C7",
"T 	c #424695",
"U 	c #C7E3EF",
"V 	c #D5EAF3",
"W 	c #E4F1F7",
"X 	c #F2F8FB",
"Y 	c #A6BCD8",
"Z 	c #9CA9B8",
"` 	c #161616",
" .	c #CBCBCB",
"..	c #6154A3",
"+.	c #615ACF",
"@.	c #443E99",
"#.	c #292469",
"$.	c #2B2872",
"%.	c #2C2771",
"&.	c #2A236C",
"*.	c #322879",
"=.	c #5A4F95",
"-.	c #A9A1C8",
";.	c #DCDAE5",
">.	c #5A4EA5",
",.	c #5D56C7",
"'.	c #454792",
").	c #608AB6",
"!.	c #84ABCF",
"~.	c #CFE6F1",
"{.	c #DEEDF5",
"].	c #6E90B9",
"^.	c #3E3E3E",
"/.	c #645DD5",
"(.	c #2E2A71",
"_.	c #30256D",
":.	c #584C8E",
"<.	c #AAA3C9",
"[.	c #DEDCE6",
"}.	c #45519C",
"|.	c #5986B2",
"1.	c #5B7FAA",
"2.	c #5C81AD",
"3.	c #4878B0",
"4.	c #7D8792",
"5.	c #222222",
"6.	c #EEEEEE",
"7.	c #655ED7",
"8.	c #1B184E",
"9.	c #6B5F9F",
"0.	c #5A4DA3",
"a.	c #5563A7",
"b.	c #97CBE2",
"c.	c #9BCAE1",
"d.	c #6E9CC3",
"e.	c #5A7EA8",
"f.	c #494949",
"g.	c #8E8E8E",
"h.	c #584BA3",
"i.	c #5366A8",
"j.	c #87C3DE",
"k.	c #95CAE2",
"l.	c #9FCCE4",
"m.	c #5C7CA2",
"n.	c #1C1C1C",
"o.	c #D5D5D5",
"p.	c #584BA2",
"q.	c #4C65A7",
"r.	c #77BBDA",
"s.	c #85C2DE",
"t.	c #7BB4D5",
"u.	c #657891",
"v.	c #0E0E0E",
"w.	c #6C609F",
"x.	c #564C97",
"y.	c #5954A5",
"z.	c #2B2949",
"A.	c #3B4882",
"B.	c #5298C0",
"C.	c #75BAD9",
"D.	c #63A2CB",
"E.	c #576575",
"F.	c #232323",
"G.	c #7369A2",
"H.	c #B9B9B9",
"I.	c #929292",
"J.	c #ABAAB0",
"K.	c #CDCDCF",
"L.	c #D4D4D4",
"M.	c #BCBCBF",
"N.	c #909396",
"O.	c #606D78",
"P.	c #285E96",
"Q.	c #57616C",
"R.	c #949494",
"S.	c #C7C7C7",
"T.	c #D3D3D3",
"U.	c #818593",
"V.	c #7E89A4",
"W.	c #738094",
"X.	c #788496",
"Y.	c #969DA3",
"Z.	c #D7D8D9",
"`.	c #83868B",
" +	c #5B5C5E",
".+	c #8A898E",
"++	c #D8D8DA",
"@+	c #898C96",
"#+	c #7B8FB6",
"$+	c #8398D1",
"%+	c #8192DE",
"&+	c #5A6B99",
"*+	c #7191CA",
"=+	c #7CAED2",
"-+	c #75899A",
";+	c #BFC3C5",
">+	c #909192",
",+	c #8C88A1",
"'+	c #C5C5C8",
")+	c #93979E",
"!+	c #99B4DE",
"~+	c #A9B9EE",
"{+	c #99A3D5",
"]+	c #7B82BF",
"^+	c #434D7A",
"/+	c #6383BE",
"(+	c #75B8DE",
"_+	c #77B7DD",
":+	c #748DA2",
"<+	c #C6C7C8",
"[+	c #6B6B6B",
"}+	c #E5E5E5",
"|+	c #EEEEEF",
"1+	c #D3D0E0",
"2+	c #C4C1D8",
"3+	c #5C4DA0",
"4+	c #83828F",
"5+	c #DADADA",
"6+	c #9AB1CE",
"7+	c #CAD9F5",
"8+	c #D3D9F6",
"9+	c #C5C8F1",
"0+	c #ABAFD5",
"a+	c #586189",
"b+	c #536DAD",
"c+	c #6BAED7",
"d+	c #73B4DA",
"e+	c #6D7784",
"f+	c #BFBFBF",
"g+	c #A4A4A4",
"h+	c #EFEFEF",
"i+	c #9187BA",
"j+	c #5143A9",
"k+	c #5E54BA",
"l+	c #483FA2",
"m+	c #362C81",
"n+	c #5E58C9",
"o+	c #9087B2",
"p+	c #B3B2B9",
"q+	c #8E939E",
"r+	c #BAD0F0",
"s+	c #D8E0F7",
"t+	c #D0D3F4",
"u+	c #B9BDDB",
"v+	c #7A82A2",
"w+	c #4E61A0",
"x+	c #466992",
"y+	c #4B7CAB",
"z+	c #5693C5",
"A+	c #5D728A",
"B+	c #C4C4C4",
"C+	c #878787",
"D+	c #8278B3",
"E+	c #A6A1DA",
"F+	c #E9E8F9",
"G+	c #BBB8EE",
"H+	c #8C87E3",
"I+	c #5B55C5",
"J+	c #3F3A8F",
"K+	c #7F779C",
"L+	c #CACACD",
"M+	c #818EA8",
"N+	c #C2D2F4",
"O+	c #D0D7F5",
"P+	c #C9CCF3",
"Q+	c #BFC3E7",
"R+	c #B5B8D3",
"S+	c #828BA8",
"T+	c #5F84C2",
"U+	c #5895C5",
"V+	c #4B7AA7",
"W+	c #47688A",
"X+	c #546375",
"Y+	c #8F9090",
"Z+	c #D8D6E3",
"`+	c #6156B8",
" @	c #C3C0F0",
".@	c #D8D6F5",
"+@	c #BFBCEF",
"@@	c #9893E5",
"#@	c #6D66DB",
"$@	c #413B93",
"%@	c #7369A1",
"&@	c #A6A4AF",
"*@	c #D1D1D2",
"=@	c #7E8CA8",
"-@	c #B8C7F0",
";@	c #C6CCF0",
">@	c #BEC2E5",
",@	c #B7BBD7",
"'@	c #A2A6BD",
")@	c #737BAA",
"!@	c #6CA9D7",
"~@	c #73B8E0",
"{@	c #8CC5E5",
"]@	c #568ABB",
"^@	c #54606D",
"/@	c #848687",
"(@	c #A9A2C8",
"_@	c #675ECE",
":@	c #9D98E7",
"<@	c #ADA9EB",
"[@	c #A29EE8",
"}@	c #8883E2",
"|@	c #665FD8",
"1@	c #3B378A",
"2@	c #262453",
"3@	c #7469A1",
"4@	c #C2C2C4",
"5@	c #778396",
"6@	c #99ADD6",
"7@	c #B3BAD7",
"8@	c #B2B6CE",
"9@	c #A3A8BE",
"0@	c #858DB1",
"a@	c #6887C1",
"b@	c #79BCE2",
"c@	c #A0D0EA",
"d@	c #A9D4EB",
"e@	c #91ADC8",
"f@	c #4F5A67",
"g@	c #A5A5A5",
"h@	c #8C8C8C",
"i@	c #BAB4D1",
"j@	c #453D99",
"k@	c #726BDC",
"l@	c #807AE0",
"m@	c #7D77DF",
"n@	c #6C65DB",
"o@	c #4E48AC",
"p@	c #292568",
"q@	c #47446A",
"r@	c #786EA3",
"s@	c #B3B3B3",
"t@	c #808080",
"u@	c #9E9E9E",
"v@	c #9D9FA4",
"w@	c #839CCB",
"x@	c #818FBF",
"y@	c #7C81B1",
"z@	c #696DA8",
"A@	c #516EA9",
"B@	c #6EA8D2",
"C@	c #7FBEE3",
"D@	c #ACD6ED",
"E@	c #9ABFDC",
"F@	c #919EAC",
"G@	c #5C656F",
"H@	c #ECECEE",
"I@	c #322575",
"J@	c #413C92",
"K@	c #504AB1",
"L@	c #514BB1",
"M@	c #443F99",
"N@	c #2D296F",
"O@	c #23204D",
"P@	c #514880",
"Q@	c #1F1D29",
"R@	c #2C2C2C",
"S@	c #383838",
"T@	c #656B71",
"U@	c #E0E1E1",
"V@	c #7B8FA5",
"W@	c #94BEE3",
"X@	c #95C1E2",
"Y@	c #6EA0C8",
"Z@	c #5A7DA2",
"`@	c #5F7B9A",
" #	c #588CBC",
".#	c #81B5DA",
"+#	c #819DB9",
"@#	c #4F5B68",
"##	c #7C7F83",
"$#	c #ACACAC",
"%#	c #B6B6B6",
"&#	c #D4D1E0",
"*#	c #2D1F6D",
"=#	c #1C1851",
"-#	c #201C57",
";#	c #181547",
">#	c #38365E",
",#	c #4E4484",
"'#	c #51609A",
")#	c #5E83AB",
"!#	c #6289B3",
"~#	c #4675A8",
"{#	c #445F7F",
"]#	c #979A9C",
"^#	c #CBCCCD",
"/#	c #869EB5",
"(#	c #96BDDF",
"_#	c #91BCDA",
":#	c #7AA9CC",
"<#	c #547DA9",
"[#	c #6A7A8D",
"}#	c #597AA0",
"|#	c #647180",
"1#	c #686E75",
"2#	c #CDCDCD",
"3#	c #6D6B66",
"4#	c #DEDDE1",
"5#	c #8C83AD",
"6#	c #574B83",
"7#	c #2D215C",
"8#	c #393060",
"9#	c #4C6897",
"0#	c #D6E4ED",
"a#	c #E1F0F8",
"b#	c #D9EDF6",
"c#	c #CCE3EF",
"d#	c #4F77A1",
"e#	c #4F5F71",
"f#	c #A0A3A5",
"g#	c #D0D1D3",
"h#	c #7C8B98",
"i#	c #8BA9C3",
"j#	c #8EB3D3",
"k#	c #77A0C5",
"l#	c #6988A9",
"m#	c #727F8D",
"n#	c #73777B",
"o#	c #CCCCCC",
"p#	c #787878",
"q#	c #C1C1C1",
"r#	c #5F5C55",
"s#	c #EDEDED",
"t#	c #DEDEDE",
"u#	c #D0D0D0",
"v#	c #BABABA",
"w#	c #111111",
"x#	c #585B5D",
"y#	c #52739A",
"z#	c #D7E4EA",
"A#	c #E2F1F8",
"B#	c #DAEDF6",
"C#	c #C5DDE9",
"D#	c #486F99",
"E#	c #506073",
"F#	c #83878A",
"G#	c #CACCCD",
"H#	c #CCCED0",
"I#	c #9DA3A8",
"J#	c #91959A",
"K#	c #A7A7A7",
"L#	c #A2A2A2",
"M#	c #6D6D6D",
"N#	c #E0E0E0",
"O#	c #726E61",
"P#	c #B1974D",
"Q#	c #B39764",
"R#	c #EBEBEB",
"S#	c #DCDCDC",
"T#	c #ABABAB",
"U#	c #0F0F0F",
"V#	c #64696E",
"W#	c #6284AC",
"X#	c #EAF4FA",
"Y#	c #E3F1F8",
"Z#	c #C9E0EE",
"`#	c #89AFD1",
" $	c #316099",
".$	c #5D738C",
"+$	c #58687B",
"@$	c #767778",
"#$	c #888888",
"$$	c #828282",
"%$	c #7A7A7A",
"&$	c #7E7E7E",
"*$	c #ADADAD",
"=$	c #716D68",
"-$	c #B3B2B2",
";$	c #787066",
">$	c #CB8D0D",
",$	c #DDAC15",
"'$	c #C2A44D",
")$	c #B59A67",
"!$	c #D8D8D8",
"~$	c #D2D2D2",
"{$	c #A1A1A1",
"]$	c #131313",
"^$	c #68727D",
"/$	c #5B7799",
"($	c #597697",
"_$	c #5D7896",
":$	c #636F7E",
"<$	c #616263",
"[$	c #4D4D4D",
"}$	c #2B2B2B",
"|$	c #3F3F3F",
"1$	c #A6A6A6",
"2$	c #67615A",
"3$	c #B8894E",
"4$	c #EC9616",
"5$	c #E29900",
"6$	c #BA9C48",
"7$	c #D7CBBA",
"8$	c #1D1D1D",
"9$	c #2A2A2A",
"0$	c #474747",
"a$	c #E9E9E9",
"b$	c #BA9A6E",
"c$	c #CA944E",
"d$	c #E39C07",
"e$	c #C6A148",
"f$	c #D1C2AE",
"g$	c #BA996E",
"h$	c #C18D4A",
"i$	c #CB9649",
"j$	c #AA8348",
"k$	c #EFEFEE",
"l$	c #DAD0C2",
"m$	c #D2C5B3",
"n$	c #EEEDEC",
". . . . . . . . . . . . . . . . . . . . . . . . . . . . . . . . ",
". . . . . . . . . . . . . . . . . . . . . . + @ # . . . . . . . ",
". . . . . . . . . . . . . . . . . . $ % & * = - ; > , . . . . . ",
". . . . . . . . . . . . . . ' ) ! ~ { ] ^ / ( _ : < [ } | . . . ",
". . . . . . . . . . ' 1 2 3 4 5 6 7 8 9 0 a b c d e f g h i j . ",
". . . . . . . k l m n o p q r s t u v w x y z A B C D E F = G . ",
". . . . . . . H I J K L M N O w P Q R S x T U V W X Y Z `  .. . ",
". . . . . . . ..+.@.#.$.%.&.*.=.-.;.>.,.x '.).!.~.{.].^.> . . . ",
". . . . . . . ../.(._.:.<.[.. . . . >.,.x }.|.1.2.3.4.5.6.. . . ",
". . . . . . . ..7.8.9.. . . . . . . 0.,.x a.b.c.d.e.f.g.. . . . ",
". . . . . . . ..7.8.9.. . . . . . . h.,.x i.j.k.l.m.n.o.. . . . ",
". . . . . . . ..7.8.9.. . . . . . . p.,.x q.r.s.t.u.v.. . . . . ",
". . . . . . . ..7.8.w.. . . . . . . x.y.z.A.B.C.D.E.F.. . . . . ",
". . . . . . . ..7.8.G.. . . . . H.I.J.K.L.M.N.O.P.Q.5.. . . . . ",
". . . . . . . ..7.8.G.. . . # R.S.T.U.V.W.X.Y.Z.`. +n.. . . . . ",
". . . . . . . ..7.8.G.. . . .+++@+#+$+%+&+*+=+-+;+>+5.. . . . . ",
". . . . . . . ..7.8.G.. . ,+'+)+!+~+{+]+^+/+(+_+:+<+[+}+. . . . ",
". . . . |+1+2+3+7.8.G.. ;.4+5+6+7+8+9+0+a+b+c+(+d+e+f+g+. . . . ",
". . h+i+j+k+l+m+n+8.G.. o+p+q+r+s+t+9+u+v+w+x+y+z+A+B+C+. . . . ",
". . D+E+F+G+H+I+J+8.G.. K+L+M+N+O+P+Q+R+S+T+U+V+W+X+Y+g.. . . . ",
". Z+`+ @.@+@@@#@$@8.%@. &@*@=@-@;@>@,@'@)@!@~@{@]@^@/@g.. . . . ",
". (@_@:@<@[@}@|@1@2@3@.  .4@5@6@7@8@9@0@a@b@c@d@e@f@g@h@. . . . ",
". i@j@k@l@m@n@o@p@q@r@s@t@u@v@w@x@y@z@A@B@C@D@E@F@G@L.> h+. . . ",
". H@I@J@K@L@M@N@O@P@Q@R@S@T@U@V@W@X@Y@Z@`@ #.#+#@###$#%#6.. . . ",
". . &#*#=#-#;#>#,#'#)#!#~#{#]#^#/#(#_#:#<#[#}#|#1#2#[+3#G . . . ",
". . h+4#5#6#7#8#9#0#a#b#c#d#e#f#g#h#i#j#k#l#m#n#o#p#q#R.r#. . . ",
". s#t#u#u#u#v#w#x#y#z#A#B#C#D#E#F#G#H#I#J#K#S.L#M#N#s#O#P#Q#. . ",
". R#S#u#u#u#u#T#U#V#W#X#Y#Z#`# $.$+$@$#$$$%$&$*$=$-$;$>$,$'$)$. ",
". . s#N#!$~$u#T.{$]$^$/$($_$:$<$[$}$v.|$1$| h+. }+2$3$4$5$,$6$7$",
". . . . . . . . . @ [ F.8$h 9$0$[+{$a$. . . . . . . b$c$4$d$e$f$",
". . . . . . . . . . . . . . . . . . . . . . . . . . . g$h$i$j$k$",
". . . . . . . . . . . . . . . . . . . . . . . . . . . . l$m$n$. "};
