/* XPM */
static char * Help_About_xpm[] = {
"32 32 425 2",
"  	c None",
". 	c #215DA3",
"+ 	c #618DC1",
"@ 	c #85ACD7",
"# 	c #9FC0E5",
"$ 	c #A4C6EC",
"% 	c #8FB7E3",
"& 	c #73A0D4",
"* 	c #2E6CB3",
"= 	c #12549F",
"- 	c #3A70AE",
"; 	c #9DBEE2",
"> 	c #ACCFF8",
", 	c #88BFFF",
"' 	c #71B3FF",
") 	c #61ABFF",
"! 	c #60A9FF",
"~ 	c #70B3FF",
"{ 	c #85BEFF",
"] 	c #B2D5FF",
"^ 	c #B6D6FA",
"/ 	c #639AD9",
"( 	c #14559F",
"_ 	c #81A6D2",
": 	c #A3CAF9",
"< 	c #66ADFF",
"[ 	c #63ACFF",
"} 	c #6BAFFF",
"| 	c #6EB2FF",
"1 	c #70B2FF",
"2 	c #6EB1FF",
"3 	c #69AFFF",
"4 	c #5AA6FF",
"5 	c #5FA8FC",
"6 	c #A3CBF9",
"7 	c #A9CCF3",
"8 	c #3E7CC3",
"9 	c #10519A",
"0 	c #1E5CA3",
"a 	c #9BBCE2",
"b 	c #7BB8FF",
"c 	c #65ADFF",
"d 	c #7AB8FF",
"e 	c #83BCFF",
"f 	c #89C0FF",
"g 	c #8BC1FF",
"h 	c #81BCFF",
"i 	c #78B7FF",
"j 	c #63ABFF",
"k 	c #59A6FF",
"l 	c #71B0F8",
"m 	c #B7D3F4",
"n 	c #538FD4",
"o 	c #12539A",
"p 	c #19599F",
"q 	c #9EC1E9",
"r 	c #72B4FF",
"s 	c #68AEFF",
"t 	c #74B5FF",
"u 	c #81BBFF",
"v 	c #8CC2FF",
"w 	c #98C8FF",
"x 	c #A2CDFF",
"y 	c #A6D0FF",
"z 	c #A0CCFF",
"A 	c #96C6FF",
"B 	c #8AC0FF",
"C 	c #7EBAFF",
"D 	c #69ADFC",
"E 	c #B5D1F2",
"F 	c #518CCF",
"G 	c #115199",
"H 	c #83AAD7",
"I 	c #73B4FF",
"J 	c #72B3FF",
"K 	c #8AC1FF",
"L 	c #96C7FF",
"M 	c #A3CDFF",
"N 	c #B5D7FF",
"O 	c #EAF4FF",
"P 	c #FBFDFF",
"Q 	c #E2EFFF",
"R 	c #99C8FE",
"S 	c #86BEFE",
"T 	c #79B7FE",
"U 	c #6DB0FE",
"V 	c #61AAFE",
"W 	c #57A5FF",
"X 	c #69AFFD",
"Y 	c #AAC9ED",
"Z 	c #407CC1",
"` 	c #0F4E99",
" .	c #4B7EB8",
"..	c #8CC1FE",
"+.	c #5EA9FF",
"@.	c #76B6FF",
"#.	c #82BCFF",
"$.	c #8DC2FF",
"%.	c #97C8FF",
"&.	c #DCECFF",
"*.	c #FFFFFF",
"=.	c #CEE4FF",
"-.	c #7BB8FD",
";.	c #6FB1FD",
">.	c #63ABFE",
",.	c #57A4FE",
"'.	c #56A4FE",
").	c #84BCFB",
"!.	c #84AEDD",
"~.	c #316BB0",
"{.	c #0E5099",
"].	c #10509B",
"^.	c #97C1F0",
"/.	c #5BA7FF",
"(.	c #6DB0FF",
"_.	c #77B6FF",
":.	c #92C4FE",
"<.	c #98C8FE",
"[.	c #E4F0FF",
"}.	c #DAEAFE",
"|.	c #82BBFD",
"1.	c #78B6FD",
"2.	c #6EB0FD",
"3.	c #63ABFD",
"4.	c #57A4FD",
"5.	c #53A2FD",
"6.	c #54A3FE",
"7.	c #AACDF7",
"8.	c #4880C1",
"9.	c #135297",
"0.	c #4B7EB9",
"a.	c #61AAFF",
"b.	c #6BB0FF",
"c.	c #75B5FF",
"d.	c #7DBAFF",
"e.	c #84BDFE",
"f.	c #89C0FE",
"g.	c #8EC2FE",
"h.	c #B7D8FE",
"i.	c #FEFEFF",
"j.	c #A8D0FE",
"k.	c #7BB7FD",
"l.	c #72B2FD",
"m.	c #55A2FC",
"n.	c #50A0FC",
"o.	c #51A1FD",
"p.	c #76B5FD",
"q.	c #82ACDD",
"r.	c #326DB0",
"s.	c #0D5199",
"t.	c #88B4E8",
"u.	c #5CA8FF",
"v.	c #5FA9FF",
"w.	c #76B5FE",
"x.	c #7BB8FE",
"y.	c #7FBAFE",
"z.	c #83BCFD",
"A.	c #A0CBFD",
"B.	c #BADAFD",
"C.	c #99C8FD",
"D.	c #78B5FC",
"E.	c #71B2FC",
"F.	c #61A9FC",
"G.	c #59A5FB",
"H.	c #509FFB",
"I.	c #4D9EFC",
"J.	c #4F9FFC",
"K.	c #51A0FD",
"L.	c #A3C9F4",
"M.	c #3D74B5",
"N.	c #125098",
"O.	c #16569F",
"P.	c #90C2FA",
"Q.	c #5AA7FF",
"R.	c #69AFFE",
"S.	c #6DB1FE",
"T.	c #74B4FD",
"U.	c #77B5FC",
"V.	c #77B4FC",
"W.	c #74B3FB",
"X.	c #71B2FB",
"Y.	c #6DAFFB",
"Z.	c #67ACFB",
"`.	c #5FA8FB",
" +	c #58A4FA",
".+	c #51A0FA",
"++	c #499CFA",
"@+	c #4A9DFB",
"#+	c #4C9EFB",
"$+	c #4E9FFC",
"%+	c #93C4FD",
"&+	c #4D82BF",
"*+	c #1C589A",
"=+	c #3A72B3",
"-+	c #7DB9FF",
";+	c #5CA7FF",
">+	c #60A9FE",
",+	c #64ABFD",
"'+	c #67ADFC",
")+	c #75B3FC",
"!+	c #96C6FD",
"~+	c #A9D0FD",
"{+	c #8FC2FC",
"]+	c #68ADFB",
"^+	c #64ABFA",
"/+	c #61A8FA",
"(+	c #5BA5FA",
"_+	c #55A2FA",
":+	c #4E9EF9",
"<+	c #479AF9",
"[+	c #469AFA",
"}+	c #479BFA",
"|+	c #499CFB",
"1+	c #4B9DFB",
"2+	c #71A1D9",
"3+	c #2E68A9",
"4+	c #5187C3",
"5+	c #6DB1FF",
"6+	c #56A4FD",
"7+	c #5EA8FD",
"8+	c #CAE2FE",
"9+	c #C1DDFD",
"0+	c #57A3F9",
"a+	c #52A0F9",
"b+	c #499BF8",
"c+	c #4297F8",
"d+	c #4297F9",
"e+	c #4398F9",
"f+	c #4599F9",
"g+	c #479AFA",
"h+	c #5AA5FB",
"i+	c #82B0E6",
"j+	c #346BAC",
"k+	c #10539E",
"l+	c #5E93CF",
"m+	c #58A5FF",
"n+	c #55A3FE",
"o+	c #52A1FD",
"p+	c #62AAFC",
"q+	c #95C6FD",
"r+	c #89BFFC",
"s+	c #E8F2FE",
"t+	c #5EA7F9",
"u+	c #4598F7",
"v+	c #4096F7",
"w+	c #3D94F7",
"x+	c #3E95F7",
"y+	c #3F95F8",
"z+	c #4096F8",
"A+	c #4298F9",
"B+	c #4E9EFB",
"C+	c #8AB7EC",
"D+	c #356CAB",
"E+	c #0F519C",
"F+	c #679CD8",
"G+	c #50A0FD",
"H+	c #B6D7FD",
"I+	c #62A8F9",
"J+	c #3A92F7",
"K+	c #3A92F6",
"L+	c #3B93F7",
"M+	c #3C94F7",
"N+	c #4599FA",
"O+	c #489BFA",
"P+	c #8BBAEF",
"Q+	c #356CAC",
"R+	c #10519D",
"S+	c #5C93D1",
"T+	c #62ABFF",
"U+	c #55A4FE",
"V+	c #52A2FD",
"W+	c #4FA0FC",
"X+	c #C8E1FD",
"Y+	c #479AF7",
"Z+	c #3791F6",
"`+	c #3790F6",
" @	c #3891F6",
".@	c #3992F6",
"+@	c #3E95F8",
"@@	c #4196F8",
"#@	c #84B4EB",
"$@	c #346CAD",
"%@	c #10529C",
"&@	c #4A84C4",
"*@	c #67AEFF",
"=@	c #F0F7FE",
"-@	c #E1EEFE",
";@	c #3690F5",
">@	c #358FF5",
",@	c #348EF5",
"'@	c #4E9EFA",
")@	c #76A9E5",
"!@	c #3069AB",
"~@	c #0F539D",
"{@	c #3872B3",
"]@	c #4D9FFC",
"^@	c #4A9CFB",
"/@	c #67ABFA",
"(@	c #ACD1FB",
"_@	c #348FF5",
":@	c #328DF4",
"<@	c #318CF4",
"[@	c #4197F8",
"}@	c #689DDB",
"|@	c #2C67AA",
"1@	c #0E509A",
"2@	c #1A59A2",
"3@	c #57A5FE",
"4@	c #54A3FD",
"5@	c #99C7FC",
"6@	c #77B4F8",
"7@	c #338EF4",
"8@	c #308CF4",
"9@	c #2E8AF3",
"0@	c #338EF5",
"a@	c #3790F5",
"b@	c #6DAFFA",
"c@	c #4983C3",
"d@	c #1F5B9F",
"e@	c #0D4E9A",
"f@	c #6CA6EA",
"g@	c #C9E2FD",
"h@	c #FEFFFF",
"i@	c #4397F6",
"j@	c #2F8BF3",
"k@	c #2B89F2",
"l@	c #2C89F3",
"m@	c #78B2F4",
"n@	c #346FB2",
"o@	c #115096",
"p@	c #447EC1",
"q@	c #65ACFF",
"r@	c #F1F7FF",
"s@	c #E2EFFE",
"t@	c #368FF5",
"u@	c #338DF4",
"v@	c #2F8CF4",
"w@	c #2D8AF3",
"x@	c #4A9CF8",
"y@	c #689EDD",
"z@	c #2F6BB2",
"A@	c #0D529C",
"B@	c #15569E",
"C@	c #6FADF4",
"D@	c #4D9EFA",
"E@	c #D3E7FD",
"F@	c #6AABF4",
"G@	c #3E7BBF",
"H@	c #17569C",
"I@	c #447FC0",
"J@	c #64ACFF",
"K@	c #F0F7FF",
"L@	c #FAFCFF",
"M@	c #9CC8FA",
"N@	c #94C4FA",
"O@	c #69ACF8",
"P@	c #3C93F7",
"Q@	c #4A9AF7",
"R@	c #6199DA",
"S@	c #2E6EB6",
"T@	c #0D519A",
"U@	c #11539B",
"V@	c #649FE1",
"W@	c #59A6FE",
"X@	c #87BDFC",
"Y@	c #F8FBFF",
"Z@	c #F9FCFF",
"`@	c #B9D8FC",
" #	c #4D9CF7",
".#	c #65A1E7",
"+#	c #3878C2",
"@#	c #0F4F97",
"##	c #1D5AA2",
"$#	c #6EAAF0",
"%#	c #55A3FD",
"&#	c #77B4FB",
"*#	c #6AADFA",
"=#	c #4799F7",
"-#	c #3F95F7",
";#	c #5E9FEA",
">#	c #4484CE",
",#	c #1759A1",
"'#	c #1F5CA2",
")#	c #6AA5EC",
"!#	c #4C9DFB",
"~#	c #4498F9",
"{#	c #4095F6",
"]#	c #5E9FE9",
"^#	c #498AD5",
"/#	c #175AA3",
"(#	c #1B5595",
"_#	c #609BDD",
":#	c #4499F9",
"<#	c #4095F7",
"[#	c #4A99F2",
"}#	c #62A1E9",
"|#	c #4288D6",
"1#	c #13539D",
"2#	c #0D3D74",
"3#	c #366DAC",
"4#	c #66A4ED",
"5#	c #5EA8FC",
"6#	c #4D9EFB",
"7#	c #53A1FA",
"8#	c #63A7F4",
"9#	c #5A9EEA",
"0#	c #2468B6",
"a#	c #0E4C94",
"b#	c #0F4480",
"c#	c #2A62A0",
"d#	c #4E88C7",
"e#	c #60A0E8",
"f#	c #66A9F4",
"g#	c #69ADFA",
"h#	c #66AAF7",
"i#	c #61A3EF",
"j#	c #468BD7",
"k#	c #1C5BA6",
"l#	c #0D4C91",
"m#	c #0B3E7A",
"n#	c #0D478A",
"o#	c #0D4A90",
"p#	c #0D4A8F",
"q#	c #0D4689",
"r#	c #06366C",
"                                                                ",
"                      . + @ # $ % & * =                         ",
"                  - ; > , ' ) ! ~ { ] ^ / (                     ",
"                _ : < [ } | 1 2 3 ) 4 5 6 7 8 9                 ",
"            0 a b c ~ d e f g , h i | j k l m n o               ",
"          p q r s t u v w x y z A B C r < 4 D E F G             ",
"          H I c J C K L M N O P Q R S T U V W X Y Z `           ",
"         ...+.} @.#.$.%.z &.*.*.*.=.S -.;.>.,.'.).!.~.{.        ",
"      ].^./.) (._.h K :.<.[.*.*.*.}.|.1.2.3.4.5.6.7.8.9.        ",
"      0.u k a.b.c.d.e.f.g.h.*.*.i.j.k.l.D 5 m.n.o.p.q.r.s.      ",
"      t.u.k v.s ~ w.x.y.|.z.A.B.C.D.E.D F.G.H.I.J.K.L.M.N.      ",
"    O.P.k k Q.j R.S.l.T.p.U.V.W.X.Y.Z.`. +.+++@+#+$+%+&+*+      ",
"    =+-+k k k ;+>+,+'+)+!+~+{+]+^+/+(+_+:+<+[+}+|+1+;.2+3+      ",
"    4+5+k k k '.6+7+8+P *.*.*.9+0+a+:+b+c+d+e+f+g+|+h+i+j+k+    ",
"    l+c k k m+n+o+p+q+r+s+*.*.*.t+u+v+w+x+y+z+A+f+}+B+C+D+E+    ",
"    F+! k k '.5.G+I.@+}+H+*.*.*.I+J+K+K+L+M+x+z+e+N+O+P+Q+R+    ",
"    S+T+k k U+V+W+#+|+[+X+*.*.*.Y+Z+`+`+ @.@L++@@@e+}+#@$@%@    ",
"    &@*@k m+n+o.$+1+O+f+=@*.*.-@;@>@,@,@>@`+.@M+y+d+'@)@!@~@    ",
"    {@5+k W 6.o.]@^@g+/@*.*.*.(@_@:@<@<@:@>@ @L+x+[@ +}@|@1@    ",
"    2@T k 3@4@G+I.^@[+5@*.*.*.6@7@8@9@9@8@0@a@K+w+z+b@c@d@      ",
"    e@f@k 3@5.G+I.|+[+g@*.*.h@i@:@j@k@l@j@7@;@.@w+z+m@n@o@      ",
"      p@q@3@4@G+I.^@[+r@*.*.s@t@u@v@w@9@8@0@;@K+w+x@y@z@A@      ",
"      B@C@3@6.o.]@^@D@*.*.*.E@`+,@:@8@8@:@>@ @L+x+F@G@H@        ",
"        I@J@6.o.$+1+O+K@*.*.L@M@N@O@0@0@>@`+.@P@Q@R@S@T@        ",
"        U@V@W@V+W+#+++X@Y@*.*.Z@`@ #;@;@Z+.@L+v+.#+#@#          ",
"          ##$#%#G+I.^@}+_+&#*#=#L+K+.@K+J+P@-#;#>#,#            ",
"            '#)#4@$+!#|+[+~#d+z++@w+w+w+w+{#]#^#/#              ",
"              (#_#7+]@1+O+[+:#A+[@z+z+<#[#}#|#1#                ",
"                2#3#4#5#6#++g+N+:#:#7#8#9#0#a#                  ",
"                    b#c#d#e#f#g#h#i#j#k#l#                      ",
"                          m#n#o#p#q#r#                          ",
"                                                                "};
