/* XPM */
static char * Help_About_xpm[] = {
"32 32 485 2",
"  	c None",
". 	c #F0F0F0",
"+ 	c #EFEFF0",
"@ 	c #D8DFE6",
"# 	c #C1CEDC",
"$ 	c #A7BBD1",
"% 	c #B5C5D7",
"& 	c #CED7E1",
"* 	c #E8EAEC",
"= 	c #6791BD",
"- 	c #6E98C6",
"; 	c #8CB0D9",
"> 	c #A1C1E5",
", 	c #A4C6EC",
"' 	c #91B8E3",
") 	c #78A4D4",
"! 	c #427AB9",
"~ 	c #4678B2",
"{ 	c #93AECC",
"] 	c #E7E9EC",
"^ 	c #D3DBE3",
"/ 	c #638DBE",
"( 	c #9DBEE3",
"_ 	c #A8CDF8",
": 	c #87BEFF",
"< 	c #70B3FF",
"[ 	c #61ABFF",
"} 	c #60A9FF",
"| 	c #84BDFF",
"1 	c #AED4FF",
"2 	c #B2D3FA",
"3 	c #5E97DB",
"4 	c #3970B0",
"5 	c #98B2CF",
"6 	c #9BB5D1",
"7 	c #81A8D6",
"8 	c #99C6FA",
"9 	c #63ACFF",
"0 	c #6BAFFF",
"a 	c #6EB2FF",
"b 	c #70B2FF",
"c 	c #6EB1FF",
"d 	c #69AFFF",
"e 	c #61AAFF",
"f 	c #5AA6FF",
"g 	c #5CA6FC",
"h 	c #9AC6F8",
"i 	c #9FC5F2",
"j 	c #4481CB",
"k 	c #507FB6",
"l 	c #E5E8EB",
"m 	c #84A3C9",
"n 	c #8FB8E6",
"o 	c #73B3FF",
"p 	c #65ADFF",
"q 	c #7AB8FF",
"r 	c #83BCFF",
"s 	c #89C0FF",
"t 	c #8BC1FF",
"u 	c #88BFFF",
"v 	c #81BCFF",
"w 	c #78B7FF",
"x 	c #63ABFF",
"y 	c #59A6FF",
"z 	c #6AACF8",
"A 	c #A2C6F1",
"B 	c #4D8DD6",
"C 	c #4779B6",
"D 	c #DCE2E8",
"E 	c #85A5C9",
"F 	c #91BBEB",
"G 	c #6AAFFF",
"H 	c #68AEFF",
"I 	c #74B5FF",
"J 	c #81BBFF",
"K 	c #8CC2FF",
"L 	c #97C8FF",
"M 	c #A2CDFF",
"N 	c #A6CFFF",
"O 	c #A0CCFF",
"P 	c #96C6FF",
"Q 	c #8AC0FF",
"R 	c #7DB9FE",
"S 	c #71B2FE",
"T 	c #66ADFF",
"U 	c #61AAFD",
"V 	c #A1C5EE",
"W 	c #4F8CD2",
"X 	c #4076B2",
"Y 	c #B6C7DA",
"Z 	c #81ABDC",
"` 	c #6DB1FF",
" .	c #71B3FF",
"..	c #7EBAFF",
"+.	c #96C7FF",
"@.	c #B5D7FF",
"#.	c #EAF4FF",
"$.	c #FBFDFF",
"%.	c #E1EFFF",
"&.	c #98C8FE",
"*.	c #84BDFE",
"=.	c #78B6FE",
"-.	c #6DB0FE",
";.	c #60A9FE",
">.	c #57A4FE",
",.	c #64ABFC",
"'.	c #9DC1EC",
").	c #4281C8",
"!.	c #5584B8",
"~.	c #5C8CC1",
"{.	c #85BDFF",
"].	c #5EA9FF",
"^.	c #76B6FF",
"/.	c #9FCCFE",
"(.	c #DBECFF",
"_.	c #FFFFFF",
":.	c #CDE4FF",
"<.	c #86BDFE",
"[.	c #7AB7FD",
"}.	c #6EB1FD",
"|.	c #63AAFD",
"1.	c #57A4FD",
"2.	c #55A3FE",
"3.	c #7BB7FC",
"4.	c #7CA8DB",
"5.	c #3D79BD",
"6.	c #8BA8CA",
"7.	c #7A9CC4",
"8.	c #93BEF1",
"9.	c #6DB0FF",
"0.	c #77B6FF",
"a.	c #8AC0FE",
"b.	c #91C4FE",
"c.	c #98C7FE",
"d.	c #E4F0FF",
"e.	c #D9EAFE",
"f.	c #81BAFD",
"g.	c #77B5FD",
"h.	c #6DB0FD",
"i.	c #62AAFC",
"j.	c #57A4FC",
"k.	c #52A1FD",
"l.	c #53A2FD",
"m.	c #A2CAF8",
"n.	c #477FC1",
"o.	c #366CAB",
"p.	c #E9EBED",
"q.	c #E4E7EB",
"r.	c #5C8CC2",
"s.	c #75B5FF",
"t.	c #89BFFE",
"u.	c #8DC1FE",
"v.	c #B7D8FE",
"w.	c #FEFEFF",
"x.	c #A8D0FD",
"y.	c #7AB6FC",
"z.	c #71B2FC",
"A.	c #67ADFC",
"B.	c #5EA7FB",
"C.	c #54A2FC",
"D.	c #4FA0FC",
"E.	c #51A0FC",
"F.	c #71B2FD",
"G.	c #7CAADE",
"H.	c #3874B9",
"I.	c #83A4C7",
"J.	c #97B0CC",
"K.	c #87B2E8",
"L.	c #5AA7FF",
"M.	c #5FA9FF",
"N.	c #67AEFF",
"O.	c #70B2FE",
"P.	c #76B5FE",
"Q.	c #7BB7FD",
"R.	c #7FBAFE",
"S.	c #81BBFD",
"T.	c #83BBFC",
"U.	c #A0CCFD",
"V.	c #BADAFD",
"W.	c #99C7FC",
"X.	c #77B5FB",
"Y.	c #71B1FB",
"Z.	c #69ADFB",
"`.	c #61A9FB",
" +	c #58A4FA",
".+	c #4E9FFB",
"++	c #4C9EFB",
"@+	c #4E9FFC",
"#+	c #50A0FC",
"$+	c #9EC7F6",
"%+	c #3D76B7",
"&+	c #396DA9",
"*+	c #4F7FB5",
"=+	c #8FC1FC",
"-+	c #68AEFE",
";+	c #6DAFFD",
">+	c #70B2FD",
",+	c #74B3FD",
"'+	c #76B4FC",
")+	c #77B5FC",
"!+	c #76B4FB",
"~+	c #74B3FB",
"{+	c #6CAFFA",
"]+	c #66ABFA",
"^+	c #5FA8FA",
"/+	c #57A4FA",
"(+	c #509FFA",
"_+	c #489BFA",
":+	c #4A9CFA",
"<+	c #4B9DFB",
"[+	c #4D9EFB",
"}+	c #91C2FC",
"|+	c #4B81C0",
"1+	c #3065A4",
"2+	c #D7DEE5",
"3+	c #4F80BA",
"4+	c #7CB8FF",
"5+	c #5AA7FE",
"6+	c #5FA9FD",
"7+	c #64ABFD",
"8+	c #66ACFC",
"9+	c #75B4FC",
"0+	c #95C5FD",
"a+	c #A9CFFD",
"b+	c #8FC2FC",
"c+	c #67ACFA",
"d+	c #64AAFA",
"e+	c #60A8FA",
"f+	c #5AA4F9",
"g+	c #55A2F9",
"h+	c #4D9EF9",
"i+	c #4599F9",
"j+	c #479AFA",
"k+	c #499BFA",
"l+	c #6DAFFC",
"m+	c #70A2DA",
"n+	c #2F6BAD",
"o+	c #90ABCA",
"p+	c #E0E5E9",
"q+	c #5D8FC6",
"r+	c #58A5FE",
"s+	c #55A4FE",
"t+	c #55A3FD",
"u+	c #5EA8FC",
"v+	c #C9E2FE",
"w+	c #FCFDFF",
"x+	c #C1DDFD",
"y+	c #57A2F9",
"z+	c #52A0F9",
"A+	c #4E9EF9",
"B+	c #489BF8",
"C+	c #4197F8",
"D+	c #4297F8",
"E+	c #4499F9",
"F+	c #469AF9",
"G+	c #59A5FB",
"H+	c #82B1E6",
"I+	c #336BAC",
"J+	c #668EBD",
"K+	c #CCD5E0",
"L+	c #6799D1",
"M+	c #57A5FE",
"N+	c #54A3FD",
"O+	c #51A1FC",
"P+	c #61A9FC",
"Q+	c #89BEFC",
"R+	c #E8F2FE",
"S+	c #5EA6F8",
"T+	c #4598F7",
"U+	c #3F96F7",
"V+	c #3C94F7",
"W+	c #3D94F7",
"X+	c #3E95F7",
"Y+	c #4096F8",
"Z+	c #4498F9",
"`+	c #4D9EFA",
" @	c #89B6EB",
".@	c #356CAC",
"+@	c #4B7CB2",
"@@	c #B8C7D8",
"#@	c #6DA0D8",
"$@	c #56A4FE",
"%@	c #B5D6FD",
"&@	c #62A9F8",
"*@	c #3A92F6",
"=@	c #3992F6",
"-@	c #3B93F6",
";@	c #479BFA",
">@	c #8AB9EF",
",@	c #3E72AB",
"'@	c #C2CEDC",
")@	c #6498D2",
"!@	c #C7E0FD",
"~@	c #4699F7",
"{@	c #3790F5",
"]@	c #3690F5",
"^@	c #3991F6",
"/@	c #4398F9",
"(@	c #479BF9",
"_@	c #85B5EC",
":@	c #346CAD",
"<@	c #4476AF",
"[@	c #D9DFE6",
"}@	c #5A8CC7",
"|@	c #4A9CFB",
"1@	c #4598F9",
"2@	c #F0F7FE",
"3@	c #E1EFFE",
"4@	c #368FF5",
"5@	c #348EF4",
"6@	c #338EF4",
"7@	c #77ABE5",
"8@	c #3069AC",
"9@	c #5C88B8",
"0@	c #EDEEEF",
"a@	c #4B7FBB",
"b@	c #499CFA",
"c@	c #ABD1FB",
"d@	c #318DF4",
"e@	c #308CF3",
"f@	c #328DF4",
"g@	c #57A3FA",
"h@	c #669CDC",
"i@	c #2D68AD",
"j@	c #7B9DC4",
"k@	c #4778B3",
"l@	c #78B7FE",
"m@	c #4699F9",
"n@	c #97C6FB",
"o@	c #76B3F8",
"p@	c #2F8BF3",
"q@	c #2D8AF2",
"r@	c #2D8AF3",
"s@	c #308BF3",
"t@	c #338DF4",
"u@	c #6CAEFA",
"v@	c #4882C3",
"w@	c #2D66A6",
"x@	c #C1CDDC",
"y@	c #7B9EC3",
"z@	c #6CA7EB",
"A@	c #C9E1FD",
"B@	c #FEFFFF",
"C@	c #4296F6",
"D@	c #2E8AF3",
"E@	c #2B88F2",
"F@	c #2C89F2",
"G@	c #358FF5",
"H@	c #3C93F7",
"I@	c #76B1F4",
"J@	c #3370B3",
"K@	c #3166A4",
"L@	c #D1DAE2",
"M@	c #5289C7",
"N@	c #F2F8FF",
"O@	c #E3EFFE",
"P@	c #2D89F2",
"Q@	c #659FE1",
"R@	c #3170B8",
"S@	c #5A86B9",
"T@	c #5684B8",
"U@	c #6FAFF7",
"V@	c #D3E7FD",
"W@	c #318CF4",
"X@	c #66A9F5",
"Y@	c #3D7AC0",
"Z@	c #316BAD",
"`@	c #D5DCE4",
" #	c #D1D9E3",
".#	c #538AC8",
"+#	c #61AAFE",
"@#	c #F0F7FF",
"##	c #9BC8FA",
"$#	c #94C3FA",
"%#	c #69ACF7",
"&#	c #469AF7",
"*#	c #5D98DA",
"=#	c #3074BF",
"-#	c #5C88B9",
";#	c #7EA0C7",
">#	c #67A2E6",
",#	c #86BDFB",
"'#	c #F8FBFF",
")#	c #FAFCFF",
"!#	c #B8D8FC",
"~#	c #4D9CF6",
"{#	c #3B92F6",
"]#	c #3E94F7",
"^#	c #609FE8",
"/#	c #367AC5",
"(#	c #376FAE",
"_#	c #DFE2E6",
":#	c #ECECEC",
"<#	c #EFEFEF",
"[#	c #5987BB",
"}#	c #6AABF6",
"|#	c #55A1FA",
"1#	c #76B4FA",
"2#	c #6BADF9",
"3#	c #4799F7",
"4#	c #569AE8",
"5#	c #4182CC",
"6#	c #336EB2",
"7#	c #BFCAD9",
"8#	c #EAEAEA",
"9#	c #EDEDED",
"0#	c #E1E4E6",
"a#	c #5283BA",
"b#	c #68A7F2",
"c#	c #52A2FC",
"d#	c #3F95F7",
"e#	c #3F94F5",
"f#	c #569AE9",
"g#	c #4487D5",
"h#	c #3470B4",
"i#	c #9FB6CF",
"j#	c #E8E8E8",
"k#	c #E9E9E9",
"l#	c #EBEBEB",
"m#	c #EEEEEE",
"n#	c #E4E4E4",
"o#	c #DFDFDF",
"p#	c #D9D9D9",
"q#	c #C5C6C8",
"r#	c #4C77AA",
"s#	c #629EE1",
"t#	c #4898F2",
"u#	c #5D9DE8",
"v#	c #3F86D8",
"w#	c #336DAE",
"x#	c #A8B6C7",
"y#	c #DBDBDB",
"z#	c #DDDDDD",
"A#	c #D5D5D5",
"B#	c #CECECE",
"C#	c #BCBCBC",
"D#	c #A1A1A2",
"E#	c #607C9E",
"F#	c #447AB5",
"G#	c #65A5EF",
"H#	c #5DA7FB",
"I#	c #4C9DFB",
"J#	c #4498F8",
"K#	c #60A5F3",
"L#	c #579DEB",
"M#	c #3071BE",
"N#	c #4071A8",
"O#	c #B0B6BE",
"P#	c #CCCCCC",
"Q#	c #D4D4D4",
"R#	c #E6E6E6",
"S#	c #E2E2E2",
"T#	c #D0D0D0",
"U#	c #C7C7C7",
"V#	c #B7B7B7",
"W#	c #A4A4A4",
"X#	c #8E9297",
"Y#	c #426A96",
"Z#	c #396DA8",
"`#	c #538BCB",
" $	c #60A0E9",
".$	c #66A9F4",
"+$	c #68ADFA",
"@$	c #66A9F6",
"#$	c #60A2EE",
"$$	c #468BD9",
"%$	c #2C69AD",
"&$	c #3467A1",
"*$	c #8697AC",
"=$	c #BEBEBE",
"-$	c #C9C9C9",
";$	c #E7E7E7",
">$	c #DEDEDE",
",$	c #D2D2D2",
"'$	c #C0C0C0",
")$	c #B5B5B5",
"!$	c #8A97A6",
"~$	c #597AA0",
"{$	c #3D6BA0",
"]$	c #32659F",
"^$	c #3A6BA2",
"/$	c #4F78A7",
"($	c #7E95B0",
"_$	c #BDC1C5",
":$	c #D1D1D1",
". . . . . . . . . . . . + @ # $ % & * . . . . . . . . . . . . . ",
". . . . . . . . . . # = - ; > , ' ) ! ~ { ] . . . . . . . . . . ",
". . . . . . . . ^ / ( _ : < [ } < | 1 2 3 4 5 . . . . . . . . . ",
". . . . . . . 6 7 8 9 9 0 a b c d e f g h i j k l . . . . . . . ",
". . . . . . m n o p < q r s t u v w a x y z A B C D . . . . . . ",
". . . . . E F G H I J K L M N O P Q R S T f U V W X l . . . . . ",
". . . . Y Z ` p  ...Q +.M @.#.$.%.&.*.=.-.;.>.,.'.).!.. . . . . ",
". . . l ~.{.].0 ^.v K L /.(._._._.:.<.[.}.|.1.2.3.4.5.6.. . . . ",
". . . 7.8.f [ 9.0.v a.b.c.d._._._.e.f.g.h.i.j.k.l.m.n.o.p.. . . ",
". . q.r...y e 0 s.R *.t.u.v._._.w.x.y.z.A.B.C.D.E.F.G.H.I.. . . ",
". . J.K.L.y M.N.O.P.Q.R.S.T.U.V.W.X.Y.Z.`. +.+++@+#+$+%+&+. . . ",
". . *+=+y y f x -+;+>+,+'+)+!+~+Y.{+]+^+/+(+_+:+<+[+}+|+1+2+. . ",
". . 3+4+y y y 5+6+7+8+9+0+a+b+c+d+e+f+g+h+i+i+j+k+<+l+m+n+o+. . ",
". p+q+c y y r+s+t+u+v+w+_._._.x+y+z+A+B+C+C+D+E+F+k+G+H+I+J+. . ",
". K+L+p y y M+N+O+P+0+Q+R+_._._.S+T+U+V+W+X+Y+D+Z+j+`+ @.@+@. . ",
". @@#@} y y $@l.#+[+:+j+%@_._._.&@*@=@=@*@-@W+Y+D+E+;@>@.@,@. . ",
". '@)@x y r+t+k.@+<+_+i+!@_._._.~@{@]@]@{@^@-@W+Y+/@(@_@:@<@. . ",
". [@}@N.y M+N+E.[+|@j+1@2@_._.3@4@5@6@6@5@]@^@-@X+D+A+7@8@9@. . ",
". 0@a@` y >.l.#+[+b@F+]+_._._.c@5@d@e@e@f@5@{@*@W+Y+g@h@i@j@. . ",
". . k@l@y $@l.#+++b@m@n@_._._.o@f@p@q@r@s@t@4@^@V+Y+u@v@w@x@. . ",
". . y@z@y $@l.#+++b@i+A@_._.B@C@d@D@E@F@p@f@G@^@H@Y+I@J@K@+ . . ",
". . L@M@9 $@l.#+++b@m@N@_._.O@G@f@p@P@q@s@t@4@^@V+B+Q@R@S@. . . ",
". . . T@U@>.l.#+[+b@h+_._._.V@]@6@W@s@s@f@5@{@*@W+X@Y@Z@`@. . . ",
". . .  #.#+#N+E.[+|@j+@#_._.$.##$#%#t@t@5@]@^@-@&#*#=#-#. . . . ",
". . . . ;#>#1.k.@+<+_+,#'#_._.)#!#~#4@4@{@^@{#]#^#/#(#_#:#<#. . ",
". . . . + [#}#l.#+++b@j+|#1#2#3#-@=@^@^@*@-@W+4#5#6#7#8#:#9#<#. ",
". . . . <#0#a#b#c#@+<+_+F+/@C+d#]#W+H@H@W+e#f#g#h#i#j#k#l#:#m#<#",
". . 8#n#o#p#q#r#s#g [+|@_+m@Z+D+Y+Y+d#d#t#u#v#w#x#y#n#j#8#l#9#<#",
". m#n#z#A#B#C#D#E#F#G#H#I#_+F+i+/@J#z+K#L#M#N#O#P#Q#z#R#8#9#<#. ",
". . 9#S#p#T#U#V#W#X#Y#Z#`# $.$+$@$#$$$%$&$*$=$-$Q#o#8#<#. . . . ",
". . . . . m#;$>$,$-$'$)$!$~${$]$^$/$($_$:$o#k#<#. . . . . . . . ",
". . . . . . . . . . . . . . . . . . . . . . . . . . . . . . . . "};
