/* XPM */
static char * MediaInfo_xpm[] = {
"32 32 123 2",
"  	c None",
". 	c #C9C9C9",
"+ 	c #D5D5D5",
"@ 	c #E5E5E5",
"# 	c #F1F1F1",
"$ 	c #F9F9F9",
"% 	c #E9E9E9",
"& 	c #999C9C",
"* 	c #C1C1C1",
"= 	c #DADADA",
"- 	c #EEC9C9",
"; 	c #EA9393",
"> 	c #B4C795",
", 	c #99DD9B",
"' 	c #92A7DE",
") 	c #B3C1E5",
"! 	c #C4C4C4",
"~ 	c #8E9090",
"{ 	c #8E8E8E",
"] 	c #989898",
"^ 	c #EBBFBF",
"/ 	c #E67676",
"( 	c #9CB672",
"_ 	c #7ED57F",
": 	c #6F8AD3",
"< 	c #A0B1DE",
"[ 	c #B4B5B5",
"} 	c #565757",
"| 	c #ADADAD",
"1 	c #969898",
"2 	c #616666",
"3 	c #E9B9B9",
"4 	c #DA3B3B",
"5 	c #789B40",
"6 	c #4CC54E",
"7 	c #3F63C3",
"8 	c #8EA3D7",
"9 	c #454545",
"0 	c #353535",
"a 	c #A5A5A5",
"b 	c #818282",
"c 	c #3E3E3E",
"d 	c #B9B9B9",
"e 	c #E7B4B4",
"f 	c #D51E1E",
"g 	c #628B21",
"h 	c #2EBA30",
"i 	c #1F49BA",
"j 	c #8198D2",
"k 	c #CCCCCC",
"l 	c #2D2D2D",
"m 	c #262626",
"n 	c #1E1E1E",
"o 	c #7D8181",
"p 	c #2BB92D",
"q 	c #1C46B8",
"r 	c #161616",
"s 	c #E2AFAF",
"t 	c #7A91CC",
"u 	c #676C6C",
"v 	c #6D6D6D",
"w 	c #686969",
"x 	c #181818",
"y 	c #DEACAC",
"z 	c #4D4D4D",
"A 	c #5A5A5A",
"B 	c #D09999",
"C 	c #D00101",
"D 	c #55820E",
"E 	c #18B31A",
"F 	c #0836B2",
"G 	c #6780C0",
"H 	c #BEBEBE",
"I 	c #0E0E0E",
"J 	c #393939",
"K 	c #C78F8F",
"L 	c #517F08",
"M 	c #13B115",
"N 	c #0231B1",
"O 	c #5F79BA",
"P 	c #000000",
"Q 	c #515252",
"R 	c #C18A8A",
"S 	c #5C75B6",
"T 	c #111010",
"U 	c #A7A8A8",
"V 	c #BB8383",
"W 	c #5771B2",
"X 	c #7D7D7D",
"Y 	c #B37B7B",
"Z 	c #526BAC",
"` 	c #9FA1A1",
" .	c #AD7575",
"..	c #D20F0F",
"+.	c #5A8515",
"@.	c #1FB521",
"#.	c #103CB5",
"$.	c #516AA9",
"%.	c #0B0C0C",
"&.	c #868888",
"*.	c #A67878",
"=.	c #48C34A",
"-.	c #3B60C2",
";.	c #5B72A9",
">.	c #929494",
",.	c #696D6D",
"'.	c #313131",
").	c #797B7B",
"!.	c #A0B878",
"~.	c #758ED5",
"{.	c #6A7DAA",
"].	c #828585",
"^.	c #6D7171",
"/.	c #747575",
"(.	c #9D8888",
"_.	c #859472",
":.	c #72A274",
"<.	c #6D7DA2",
"[.	c #6C788F",
"}.	c #797D7D",
"|.	c #737878",
"1.	c #6A7070",
"2.	c #5E6464",
"                                                                ",
"                        . + @ # # @ . .                         ",
"                    @ $ $ $ $ $ $ $ $ # $ +                     ",
"                + $ $ $ $ $ $ $ $ $ $ $ # $ # .                 ",
"              # $ $ $ $ $ $ $ $ $ $ $ $ $ # # # @               ",
"            # $ $ $ $ $ $ $ $ $ $ $ $ $ $ # # # % %             ",
"          % $ $ $ $ $ $ $ $ $ $ $ $ $ $ # $ # + & * =           ",
"        . - ; > , ' ) $ $ $ $ $ $ $ # # # # # ! ~ { ] .         ",
"        # ^ / ( _ : < $ $ $ $ $ # # [ } | % % % 1 2 2 &         ",
"      + # 3 4 5 6 7 8 $ $ # # # # # + 9 0 a % @ @ b c 0 d       ",
"      # # e f g h i j # # # # # # % % k l m = @ = = c n o       ",
"    [ % % e f g p q j # # # % * * % % @ 1 r b = = + ~ r 0 |     ",
"    d % % s f g p q t % % . 2 u v w . @ = m 9 = + + * x n a     ",
"    + @ @ y f g p q t % % z 1 ! ! o A = = z m + + . . l r a     ",
"    = + + B C D E F G + H I 0 0 [ 2 n + + A n . . . . J r a     ",
"    . . ! K C L M N O . d P P 9 l P r ! . Q n . . ! ! J r a     ",
"    d . d R C L M N S ! ! c P a } P z | | m r a & & ] T P ~     ",
"    U d d V C L M N W d d | 9 I I z U U 1 P 0 1 1 { X P P 1     ",
"    & d | Y C L M N Z | | | U U U a ` ` c P u 1 ~ b z P m ~     ",
"      d U  ...+.@.#.$.` ` ` ` 1 1 1 1 } %.m &.b b o r P A       ",
"      a a *.4 5 =.-.;.1 1 1 1 >.>.>.,.'.'.).o o o c l m ~       ",
"      ~ a *./ !._ ~.{.&.&.&.&.&.&.].^.} ).o ).).Q 2 } /.~       ",
"        1 (. ._.:.<.[.o o o o o }.).).).^.^.^.2 ~ b ^.~         ",
"          & ~ o ).).|.|.|.|.^.|.^.^.^.1.,.,.,.,.u ).~           ",
"          b 1 b ).^.^.1.,.,.1.,.,.,.,.2 ,.2.2 ,./.&.b           ",
"            o ~ o ).,.,.2.,.2.2.2.2.2.2.2.2.,./.b o             ",
"              b b b ).^.,.2.2.2.2.2.2.2 ,.,.o ).b               ",
"                  /.o o ).^.^.,.,.,.^.^.o o /.                  ",
"                      /././.).o o )./.^./.                      ",
"                                                                ",
"                                                                ",
"                                                                "};
