<?xml version="1.0" encoding="UTF-8" standalone="no"?>
<!-- Created with Inkscape (http://www.inkscape.org/) -->

<svg
   xmlns:dc="http://purl.org/dc/elements/1.1/"
   xmlns:cc="http://creativecommons.org/ns#"
   xmlns:rdf="http://www.w3.org/1999/02/22-rdf-syntax-ns#"
   xmlns:svg="http://www.w3.org/2000/svg"
   xmlns="http://www.w3.org/2000/svg"
   xmlns:sodipodi="http://sodipodi.sourceforge.net/DTD/sodipodi-0.dtd"
   xmlns:inkscape="http://www.inkscape.org/namespaces/inkscape"
   width="45"
   height="45"
   id="svg2"
   version="1.1"
   inkscape:version="0.48.2 r9819"
   sodipodi:docname="MediaInfo.svg"
   inkscape:export-filename="E:\Programmation\MediaInfo\Source\Ressource\Image\MediaInfoBig.png"
   inkscape:export-xdpi="1023.63"
   inkscape:export-ydpi="1023.63"
   style="display:inline">
  <defs
     id="defs4">
    <linearGradient
       id="linearGradient3798">
      <stop
         style="stop-color:#aeaeae;stop-opacity:1;"
         offset="0"
         id="stop3800" />
      <stop
         style="stop-color:#000000;stop-opacity:1;"
         offset="1"
         id="stop3802" />
    </linearGradient>
    <inkscape:perspective
       sodipodi:type="inkscape:persp3d"
       inkscape:vp_x="0 : 526.18109 : 1"
       inkscape:vp_y="0 : 1000 : 0"
       inkscape:vp_z="744.09448 : 526.18109 : 1"
       inkscape:persp3d-origin="372.04724 : 350.78739 : 1"
       id="perspective10" />
    <inkscape:perspective
       id="perspective2999"
       inkscape:persp3d-origin="0.5 : 0.33333333 : 1"
       inkscape:vp_z="1 : 0.5 : 1"
       inkscape:vp_y="0 : 1000 : 0"
       inkscape:vp_x="0 : 0.5 : 1"
       sodipodi:type="inkscape:persp3d" />
  </defs>
  <sodipodi:namedview
     id="base"
     pagecolor="#ffffff"
     bordercolor="#666666"
     borderopacity="1.0"
     inkscape:pageopacity="0.0"
     inkscape:pageshadow="2"
     inkscape:zoom="16"
     inkscape:cx="23.992071"
     inkscape:cy="20.958379"
     inkscape:document-units="px"
     inkscape:current-layer="layer4"
     showgrid="false"
     inkscape:window-width="1858"
     inkscape:window-height="1178"
     inkscape:window-x="-8"
     inkscape:window-y="-8"
     inkscape:window-maximized="1">
    <inkscape:grid
       type="xygrid"
       id="grid3029" />
  </sodipodi:namedview>
  <metadata
     id="metadata7">
    <rdf:RDF>
      <cc:Work
         rdf:about="">
        <dc:format>image/svg+xml</dc:format>
        <dc:type
           rdf:resource="http://purl.org/dc/dcmitype/StillImage" />
        <dc:title></dc:title>
        <dc:date>2010-06-05</dc:date>
        <dc:creator>
          <cc:Agent>
            <dc:title>Jerome Martinez</dc:title>
          </cc:Agent>
        </dc:creator>
        <dc:contributor>
          <cc:Agent>
            <dc:title>drawing by Kevin Redon</dc:title>
          </cc:Agent>
        </dc:contributor>
      </cc:Work>
    </rdf:RDF>
  </metadata>
  <g
     inkscape:groupmode="layer"
     id="layer2"
     inkscape:label="rvb"
     style="display:inline"
     transform="translate(0,-725)">
    <path
       style="fill:#ff0302;fill-opacity:1;stroke:none"
       d="m 1.0888174,725.00179 c -0.60922238,0.0358 -1.09005099,0.62066 -1.09005099,1.33978 l 0,42.32753 c 0,0.74234 0.5126896,1.3398 1.14970499,1.3398 l 1.3919386,0 0,-45.00711 -1.3919386,0 c -0.019903,0 -0.040004,-10e-4 -0.059658,0 z"
       id="path3018"
       inkscape:connector-curvature="0" />
    <path
       style="fill:#120ffe;fill-opacity:1;stroke:none"
       d="m 5.0278219,725.00125 0,45.00763 1.4877478,0 c 0.6370144,0 1.1497037,-0.59745 1.1497037,-1.3398 l 0,-42.32801 c 0,-0.74232 -0.5126893,-1.33982 -1.1497037,-1.33982 l -1.4877478,0 z"
       id="rect3006"
       inkscape:connector-curvature="0" />
    <rect
       ry="0"
       rx="0"
       y="725.00128"
       x="2.5400574"
       height="45.007618"
       width="2.4874117"
       id="rect3010"
       style="fill:#01d318;fill-opacity:1;stroke:none" />
  </g>
  <g
     inkscape:groupmode="layer"
     id="layer4"
     inkscape:label="point"
     transform="translate(0,-755)">
    <path
       sodipodi:type="arc"
       style="fill:#000000;fill-opacity:1;stroke:none;display:inline"
       id="path3792"
       sodipodi:cx="385.87827"
       sodipodi:cy="395.2334"
       sodipodi:rx="122.22845"
       sodipodi:ry="122.22845"
       d="m 508.10671,395.2334 a 122.22845,122.22845 0 1 1 -244.45689,0 122.22845,122.22845 0 1 1 244.45689,0 z"
       transform="matrix(0.05253065,0,0,0.05483809,-1.7883735,756.04911)" />
    <text
       xml:space="preserve"
       style="font-size:9.82973003px;font-style:normal;font-variant:normal;font-weight:bold;font-stretch:normal;text-align:center;line-height:125%;letter-spacing:0;word-spacing:0;text-anchor:middle;fill:#ffffff;fill-opacity:1;stroke:#000000;stroke-width:0.05799887;display:inline;font-family:Arial;-inkscape-font-specification:Andale Mono Bold"
       x="18.43807"
       y="781.91711"
       id="text3794"
       sodipodi:linespacing="125%"
       transform="scale(1.0008229,0.99917779)"><tspan
         sodipodi:role="line"
         id="tspan3796"
         x="18.43807"
         y="781.91711"
         style="stroke-width:0.05799887">?</tspan></text>
  </g>
  <g
     inkscape:groupmode="layer"
     id="layer3"
     inkscape:label="vague"
     transform="translate(0,-755)">
    <path
       style="fill:#000000;stroke:none;display:inline"
       d="m 21.591439,764.20901 c -0.304594,0 -0.60532,0.01 -0.904981,0.0299 5.910992,0.45243 10.586479,6.21491 10.586479,13.2594 0,7.04448 -4.675487,12.80897 -10.586479,13.26141 0.299661,0.0189 0.600387,0.0299 0.904981,0.0299 7.585654,0 13.735815,-5.9517 13.735815,-13.29151 0,-7.33976 -6.150161,-13.28947 -13.735815,-13.28947 z"
       id="path3813"
       inkscape:connector-curvature="0" />
    <path
       style="fill:#000000;stroke:none"
       d="m 18.768803,755.00118 c 11.75023,0.15573 21.229063,10.16875 21.229063,22.49823 0,12.32948 -9.478833,22.34251 -21.229063,22.49822 14.521031,-0.12644 26.246281,-10.15035 26.246281,-22.49822 0,-12.34787 -11.72525,-22.37176 -26.246281,-22.49823 z"
       id="path3042"
       inkscape:connector-curvature="0" />
  </g>
</svg>
