/* XPM */
static char * File_Open_File_xpm[] = {
"32 32 212 2",
"  	c None",
". 	c #95B7CC",
"+ 	c #9AC3E3",
"@ 	c #99C3E9",
"# 	c #98BEEA",
"$ 	c #A4C3F0",
"% 	c #AEC6F2",
"& 	c #B4CAF3",
"* 	c #C4D1F4",
"= 	c #D0D9F6",
"- 	c #596FBF",
"; 	c #A6CCE8",
"> 	c #CFE2FC",
", 	c #E9F1FE",
"' 	c #F1F6FE",
") 	c #F8FBFE",
"! 	c #F8F8F9",
"~ 	c #5163AD",
"{ 	c #C5D8FB",
"] 	c #BCD0FB",
"^ 	c #E4EDFD",
"/ 	c #4D5FA4",
"( 	c #95C0E7",
"_ 	c #A5C3FA",
": 	c #ACC2FB",
"< 	c #C9D7FC",
"[ 	c #52629D",
"} 	c #94BEDC",
"| 	c #7DA5F9",
"1 	c #B4C9FB",
"2 	c #A2BBFA",
"3 	c #DDE4F9",
"4 	c #9FC4DE",
"5 	c #7AB0F7",
"6 	c #6F95F9",
"7 	c #D0E2FA",
"8 	c #AAC4D5",
"9 	c #80BBF7",
"0 	c #759AF8",
"a 	c #5162A3",
"b 	c #9FD2F7",
"c 	c #BBCDFB",
"d 	c #DBE3F9",
"e 	c #4D60A8",
"f 	c #A4D0EF",
"g 	c #9AB4FA",
"h 	c #9DB8FB",
"i 	c #5166B4",
"j 	c #BFDAF8",
"k 	c #DAE9FE",
"l 	c #D4DEF8",
"m 	c #6077CD",
"n 	c #D6E8FF",
"o 	c #E0EAFE",
"p 	c #CCDBFC",
"q 	c #93AEFA",
"r 	c #B1C5FB",
"s 	c #7A8FDF",
"t 	c #BDD5F6",
"u 	c #E6F0FE",
"v 	c #A1B1EC",
"w 	c #A9BFFA",
"x 	c #A1B3E2",
"y 	c #A2ADC6",
"z 	c #A4ABBB",
"A 	c #A4AAB6",
"B 	c #ABB2BF",
"C 	c #BDC9E2",
"D 	c #626E9D",
"E 	c #A2BAED",
"F 	c #EDF2FD",
"G 	c #95A6EA",
"H 	c #D1D2D4",
"I 	c #DFE0E1",
"J 	c #D8D9DA",
"K 	c #D0D1D2",
"L 	c #C9CACD",
"M 	c #B6B9BD",
"N 	c #BDBFC5",
"O 	c #C5CFDC",
"P 	c #8DA8EC",
"Q 	c #81ABFA",
"R 	c #82A2F8",
"S 	c #8AA2E9",
"T 	c #ACB5CB",
"U 	c #F5F5F5",
"V 	c #EFEFF0",
"W 	c #C5C6C8",
"X 	c #BFC0C2",
"Y 	c #B4B6B9",
"Z 	c #6A80D2",
"` 	c #748FDC",
" .	c #B0B6C6",
"..	c #ACB4C6",
"+.	c #8BA6DC",
"@.	c #83AAF4",
"#.	c #83A3EC",
"$.	c #7583B7",
"%.	c #7D849F",
"&.	c #9CAACA",
"*.	c #EAEBEB",
"=.	c #99A6C7",
"-.	c #98C3F7",
";.	c #A6D8FE",
">.	c #9ACBFD",
",.	c #8AB6FB",
"'.	c #7EA3F6",
").	c #B9C6D5",
"!.	c #A1A6AD",
"~.	c #7383C0",
"{.	c #7C9BF2",
"].	c #B3B8C3",
"^.	c #BCE9FE",
"/.	c #B3E2FF",
"(.	c #95C5FC",
"_.	c #86B1FB",
":.	c #9BB1E7",
"<.	c #5D71C1",
"[.	c #BDC8F2",
"}.	c #9AACDB",
"|.	c #CAF4FE",
"1.	c #AFE0FF",
"2.	c #8FABF0",
"3.	c #A6B0D3",
"4.	c #6673A3",
"5.	c #C6F1FF",
"6.	c #96A8EA",
"7.	c #C7D3E5",
"8.	c #647BD6",
"9.	c #8C9BC5",
"0.	c #94A6CC",
"a.	c #AABCE9",
"b.	c #A5A4A7",
"c.	c #BCB0C4",
"d.	c #B1B4E0",
"e.	c #717BA4",
"f.	c #6B7DC0",
"g.	c #8DA4D3",
"h.	c #85A3F7",
"i.	c #C1C6D3",
"j.	c #9A8F89",
"k.	c #E2B76C",
"l.	c #E39D65",
"m.	c #73578E",
"n.	c #AAB9EE",
"o.	c #ADAFB1",
"p.	c #A9AAAC",
"q.	c #B0B2B4",
"r.	c #BFAF93",
"s.	c #FDCF60",
"t.	c #F4D277",
"u.	c #BD8462",
"v.	c #6D84DD",
"w.	c #939CB0",
"x.	c #CFD0D1",
"y.	c #91BEFC",
"z.	c #8D8E90",
"A.	c #D2AD80",
"B.	c #FEBE4B",
"C.	c #FFCF5F",
"D.	c #FEE277",
"E.	c #ECBE6F",
"F.	c #B98975",
"G.	c #6A7BBF",
"H.	c #C6D6EF",
"I.	c #B6C2DF",
"J.	c #92706B",
"K.	c #A88561",
"L.	c #AD9172",
"M.	c #F09528",
"N.	c #FFAB33",
"O.	c #FFB13B",
"P.	c #FFC24F",
"Q.	c #FFD566",
"R.	c #FCE27A",
"S.	c #DD9E63",
"T.	c #97999B",
"U.	c #737474",
"V.	c #E06A1E",
"W.	c #FF8D0E",
"X.	c #FF9215",
"Y.	c #FF9B1F",
"Z.	c #FFA72E",
"`.	c #FFB640",
" +	c #FFC755",
".+	c #FCD268",
"++	c #99746A",
"@+	c #5D73CC",
"#+	c #7E7F83",
"$+	c #878889",
"%+	c #808182",
"&+	c #777778",
"*+	c #B06244",
"=+	c #EF6F09",
"-+	c #FE8506",
";+	c #FF9E23",
">+	c #F6A73F",
",+	c #8D716C",
"'+	c #5972D4",
")+	c #4257A5",
"!+	c #5E678C",
"~+	c #C35E2C",
"{+	c #F77805",
"]+	c #FE9519",
"^+	c #C4632C",
"/+	c #516BCE",
"(+	c #626B8B",
"_+	c #A58076",
":+	c #D6611B",
"<+	c #D15E1B",
"[+	c #85706C",
"}+	c #9B827E",
"                                                                ",
"                  . + @ # @ $ % & & * = = -                     ",
"              ; > , ' ' ) ) ) ) ) ) ) ) ! ~                     ",
"            # { ] ^ , ' ) ) ) ) ) ) ) ) ' /                     ",
"          ( _ : < ^ , ' ) ) ) ) ) ) ) ) ^ [                     ",
"        } | 1 2 < ^ , ' ) ) ) ) ) ) ) ) 3 [                     ",
"      4 5 6 ] 2 7 ^ , ' ) ) ) ) ) ) ' ) 3 [                     ",
"    8 9 0 0 ] 2 7 , , ' ! ) ) ) ) ) ) ' , a                     ",
"    b { < < c 2 d ^ ' ' ) ) ) ) ) ' ' ' , e                     ",
"  f { g g h 2 : ^ , ' ' ) ) ) ' ' ' ' ' ' i                     ",
"  j h _ 1 ] 7 k , , ' ' ) ) ' ' ^ l , ' ' m                     ",
"  ] ] 7 n k ^ ^ , , o p c h g q g r , , , s                     ",
"  t 7 k d < 1 2 q q h r : r c l ^ , , , u v                     ",
"  & ^ ^ 7 w c l , ' l : w x y z A B C ^ ^ * D                   ",
"  E , , , , ' ' F c q G y H I J K L M N O ^ i                   ",
"  P ' ' ' l r g Q R S T U U V I J W N W X Y Z                   ",
"  ` ' ' ' ] p l w w  .! ) ) I ..+.@.@.#.T W $.%.                ",
"  Z ' ' ) ' ' c w &.*.U U I =.-.;.;.>.,.'.).!.e                 ",
"  ~.^ ) ) ^ : Q {.].*.*.*.y ;.^.^./.;.(._.:.Y <.                ",
"    [.' ' u c 2 }.H I *.L # |.|.^./.1.>._.2.M 3.4.              ",
"    S ) ' ' 7 2 =.H J I y 1.5.5.^./.1.(._.6.Y 7.m               ",
"    8.' ' ' c | 9.W H I 0.;.^.^./.1.;.(.Q a.b.c.d.e.            ",
"    f.^ , ' n 2 =.W W J g.;.1.1.1.;.>.,.h.i.j.k.l.m.            ",
"      n.' , u ] }.o.M J 0.,.;.;.;.(.,.Q n.p.q.r.s.t.u.          ",
"      v., , u 1 h.w.q.x.N #.,.y.,.,.| E M z.W A.B.C.D.E.F.      ",
"      G.d u u k k H.!.q.H ..S | | 2.I.q.J.K.L.M.N.O.P.Q.R.S.    ",
"        G u k k k n 7 ).Y X W W W N T.U.  V.W.X.X.Y.Z.`. +.+++  ",
"        @+^ k k k ^ l v 8.[ #+$+%+&+        *+=+-+W.X.;+N.>+,+  ",
"          n., = 6.'+)+!+                        ~+{+-+W.]+^+    ",
"          <./+)+(+                                _+:+{+<+[+    ",
"                                                      }+        ",
"                                                                "};
