/* XPM */
static char * File_Open_Directory_xpm[] = {
"32 32 545 2",
"  	c None",
". 	c #F8D56E",
"+ 	c #F0C039",
"@ 	c #EEB92B",
"# 	c #E7A700",
"$ 	c #DFB53D",
"% 	c #D39500",
"& 	c #DC9B00",
"* 	c #DEA000",
"= 	c #E5AC06",
"- 	c #E8B919",
"; 	c #EFC52E",
"> 	c #EEC329",
", 	c #D79900",
"' 	c #875E00",
") 	c #E8A600",
"! 	c #F0C62E",
"~ 	c #FFFF8B",
"{ 	c #FFFF97",
"] 	c #FFFF9D",
"^ 	c #FFFF9F",
"/ 	c #FFFFA1",
"( 	c #F1CD3B",
"_ 	c #E3A200",
": 	c #7E5800",
"< 	c #A67700",
"[ 	c #B17D00",
"} 	c #CE9200",
"| 	c #DA9D00",
"1 	c #C58E00",
"2 	c #B48918",
"3 	c #E5AC03",
"4 	c #FFF477",
"5 	c #FFFFA0",
"6 	c #FFFF9E",
"7 	c #EAC12A",
"8 	c #CF9200",
"9 	c #BB8400",
"0 	c #D29400",
"a 	c #DD9F00",
"b 	c #DEA600",
"c 	c #E5B110",
"d 	c #E7B81E",
"e 	c #EDC530",
"f 	c #F2CF40",
"g 	c #EFC935",
"h 	c #D99F00",
"i 	c #F5D643",
"j 	c #FFFF9A",
"k 	c #FFFF9C",
"l 	c #FFFF9B",
"m 	c #FFFF93",
"n 	c #FEFC8B",
"o 	c #F8F380",
"p 	c #E6C740",
"q 	c #E5CA46",
"r 	c #D2C056",
"s 	c #CBC063",
"t 	c #CFCC75",
"u 	c #DADA80",
"v 	c #F3F38B",
"w 	c #FFFF90",
"x 	c #FFFF92",
"y 	c #FFFF95",
"z 	c #FFF575",
"A 	c #DEA90A",
"B 	c #DB9B00",
"C 	c #FFF371",
"D 	c #FFFF96",
"E 	c #FFFF94",
"F 	c #FFFF8D",
"G 	c #FAF583",
"H 	c #EDE573",
"I 	c #E6DB65",
"J 	c #AFAD66",
"K 	c #6D7971",
"L 	c #6A788A",
"M 	c #808EA2",
"N 	c #8F9AAD",
"O 	c #7E8DA1",
"P 	c #697A88",
"Q 	c #829081",
"R 	c #F1F28A",
"S 	c #FFFF8F",
"T 	c #FFF473",
"U 	c #DA9A00",
"V 	c #FFF270",
"W 	c #FFFD87",
"X 	c #F1E976",
"Y 	c #E2D662",
"Z 	c #C3B651",
"` 	c #727965",
" .	c #7281AA",
"..	c #B8BED8",
"+.	c #CAD1EB",
"@.	c #C1CBEB",
"#.	c #BDC7EA",
"$.	c #C4CCEB",
"%.	c #CBD0E8",
"&.	c #B2B8D2",
"*.	c #5F7096",
"=.	c #A0A67C",
"-.	c #EBC636",
";.	c #D19A00",
">.	c #B68100",
",.	c #BF8600",
"'.	c #D29700",
").	c #D39D04",
"!.	c #D8A619",
"~.	c #D29E09",
"{.	c #AB7C00",
"].	c #D99A00",
"^.	c #FFED66",
"/.	c #FFFE86",
"(.	c #F5EE78",
"_.	c #DFCF5D",
":.	c #CFBB46",
"<.	c #676E67",
"[.	c #919CB8",
"}.	c #BEC5E3",
"|.	c #ADBDE9",
"1.	c #C3D2F5",
"2.	c #CDDBFB",
"3.	c #D0DEFC",
"4.	c #C7D8F8",
"5.	c #B7C7EF",
"6.	c #A3B4E3",
"7.	c #CCCEE1",
"8.	c #717EA0",
"9.	c #8A752F",
"0.	c #DDAF31",
"a.	c #E6C55E",
"b.	c #EED67E",
"c.	c #F5E59D",
"d.	c #FBEEAB",
"e.	c #FFF5B9",
"f.	c #DBB336",
"g.	c #AB7D00",
"h.	c #DA9E00",
"i.	c #FFE459",
"j.	c #FFFF89",
"k.	c #FFFF88",
"l.	c #FFFF85",
"m.	c #F8EE77",
"n.	c #E4D55F",
"o.	c #CBB441",
"p.	c #787752",
"q.	c #8D9BBE",
"r.	c #BBC5E6",
"s.	c #B4C7F4",
"t.	c #DCEAFF",
"u.	c #DDEAFF",
"v.	c #DFEAFF",
"w.	c #DEEAFF",
"x.	c #D8E4FF",
"y.	c #9CAEE4",
"z.	c #D2D5E8",
"A.	c #6A7BA6",
"B.	c #C6CDC3",
"C.	c #FFFFDF",
"D.	c #FFFFDD",
"E.	c #FFFFD6",
"F.	c #FFFFD3",
"G.	c #FBEB9C",
"H.	c #CD9904",
"I.	c #DDA715",
"J.	c #FCDC4C",
"K.	c #FFFF86",
"L.	c #FFFF84",
"M.	c #FFF87D",
"N.	c #EFE169",
"O.	c #D9C34D",
"P.	c #AC9B3E",
"Q.	c #58657B",
"R.	c #CBD0E7",
"S.	c #A8BBEB",
"T.	c #D9E6FF",
"U.	c #D7E5FF",
"V.	c #D7E4FF",
"W.	c #D8E6FF",
"X.	c #D7E6FF",
"Y.	c #DAE6FF",
"Z.	c #BED0F8",
"`.	c #9CACDF",
" +	c #B2B7CE",
".+	c #738197",
"++	c #FFFFC9",
"@+	c #FFFFC7",
"#+	c #FFFFC1",
"$+	c #FFFFC0",
"%+	c #E7C757",
"&+	c #CB8F00",
"*+	c #DCA715",
"=+	c #F8D341",
"-+	c #FFFD80",
";+	c #FFFB7E",
">+	c #FEF073",
",+	c #E4D059",
"'+	c #C7AB32",
")+	c #7C703A",
"!+	c #95A0BD",
"~+	c #ADBBE5",
"{+	c #BFD2F8",
"]+	c #CEDFFE",
"^+	c #CEE1FD",
"/+	c #CFDFFD",
"(+	c #D0E2FF",
"_+	c #D0E1FE",
":+	c #CADCFD",
"<+	c #C0D6FB",
"[+	c #AAC6F6",
"}+	c #6A8FE3",
"|+	c #C3C5DE",
"1+	c #61729E",
"2+	c #EAE2A7",
"3+	c #FFFFAE",
"4+	c #FFFDA8",
"5+	c #FFFCA1",
"6+	c #CD9600",
"7+	c #815A00",
"8+	c #DCA615",
"9+	c #F5CC37",
"0+	c #FFFA7B",
"a+	c #FFF779",
"b+	c #FCEA6F",
"c+	c #D5B535",
"d+	c #B28200",
"e+	c #675F3E",
"f+	c #B3BAD2",
"g+	c #9AB1E8",
"h+	c #C4D9FC",
"i+	c #CADDFC",
"j+	c #CBDCFE",
"k+	c #C0D5FB",
"l+	c #9CBBF4",
"m+	c #90B4F2",
"n+	c #8EB1F1",
"o+	c #85ACEF",
"p+	c #719AE9",
"q+	c #A6B1DD",
"r+	c #818DB2",
"s+	c #C1BD8F",
"t+	c #FFFC9C",
"u+	c #FFFC97",
"v+	c #F5DA63",
"w+	c #C18700",
"x+	c #D8A316",
"y+	c #F3C42E",
"z+	c #FFF372",
"A+	c #F7E161",
"B+	c #BA8700",
"C+	c #B4880E",
"D+	c #737777",
"E+	c #BDC2D8",
"F+	c #92ADEA",
"G+	c #C3D9FB",
"H+	c #C7D9FD",
"I+	c #C9DCFD",
"J+	c #C5DAFC",
"K+	c #9EBEF4",
"L+	c #9BBAF3",
"M+	c #97B8F4",
"N+	c #93B7F2",
"O+	c #8EB2F2",
"P+	c #80A6EE",
"Q+	c #93A5DC",
"R+	c #97A0C1",
"S+	c #A8A26E",
"T+	c #FFF05F",
"U+	c #FFE239",
"V+	c #D9A504",
"W+	c #966C00",
"X+	c #C29416",
"Y+	c #F2C126",
"Z+	c #FFF26F",
"`+	c #FFF16F",
" @	c #F0CF47",
".@	c #C1A343",
"+@	c #727877",
"@@	c #BBC2D7",
"#@	c #7E9DE6",
"$@	c #B2CBF7",
"%@	c #C3D8FC",
"&@	c #C6D9FC",
"*@	c #BED3FB",
"=@	c #AECAF7",
"-@	c #A7C4F7",
";@	c #A6C4F5",
">@	c #A2C0F6",
",@	c #9DBEF5",
"'@	c #86AAEF",
")@	c #96A6DB",
"!@	c #929CC0",
"~@	c #A39030",
"{@	c #FFD800",
"]@	c #FAC500",
"^@	c #CE9500",
"/@	c #BD9016",
"(@	c #EEB91C",
"_@	c #FFEE69",
":@	c #FFEE6A",
"<@	c #E1B41F",
"[@	c #C49611",
"}@	c #CCB358",
"|@	c #757562",
"1@	c #ADB5CD",
"2@	c #869FDF",
"3@	c #91B4F2",
"4@	c #A6C2F5",
"5@	c #ABC6F6",
"6@	c #B7CDFA",
"7@	c #B7CFFA",
"8@	c #B6CEFA",
"9@	c #B2CBF8",
"0@	c #ABC6F7",
"a@	c #A1BFF5",
"b@	c #83A7ED",
"c@	c #ABB2D9",
"d@	c #7381AF",
"e@	c #BB9B13",
"f@	c #FFD700",
"g@	c #DFAA00",
"h@	c #C58B00",
"i@	c #EAB417",
"j@	c #FFEA64",
"k@	c #FFE55D",
"l@	c #DAA60B",
"m@	c #D2AA2E",
"n@	c #D5BE61",
"o@	c #898054",
"p@	c #8592B1",
"q@	c #ADBAE4",
"r@	c #8EADEE",
"s@	c #AFCAF8",
"t@	c #B5CDFA",
"u@	c #BED5FB",
"v@	c #C2D7FC",
"w@	c #C1D5FA",
"x@	c #BBD2FB",
"y@	c #809DE3",
"z@	c #B9B9D5",
"A@	c #566692",
"B@	c #E6B500",
"C@	c #FFD500",
"D@	c #CC9300",
"E@	c #8A6200",
"F@	c #BF9017",
"G@	c #E7AF10",
"H@	c #FFE65D",
"I@	c #FCD546",
"J@	c #EDD161",
"K@	c #E3CB63",
"L@	c #BAA145",
"M@	c #566070",
"N@	c #C6CBE1",
"O@	c #95AAE1",
"P@	c #ABC5F6",
"Q@	c #C1D6FB",
"R@	c #CBDDFD",
"S@	c #CFE1FE",
"T@	c #D1E1FE",
"U@	c #C6DAFC",
"V@	c #BED3FA",
"W@	c #93ADEA",
"X@	c #A5ADD7",
"Y@	c #8E96B9",
"Z@	c #4F6392",
"`@	c #6C716B",
" #	c #BF9A0F",
".#	c #BE8700",
"+#	c #A17D17",
"@#	c #E6AB0C",
"##	c #FFE458",
"$#	c #F1C32E",
"%#	c #D39A00",
"&#	c #FFE776",
"*#	c #F0D763",
"=#	c #D7B943",
"-#	c #908449",
";#	c #7180AB",
">#	c #C9CBE2",
",#	c #92A8E3",
"'#	c #B1C7F6",
")#	c #D0E2FE",
"!#	c #DAE8FF",
"~#	c #9FB9F0",
"{#	c #9CA7D5",
"]#	c #B3B4D2",
"^#	c #556796",
"/#	c #B7BED5",
"(#	c #475885",
"_#	c #85671A",
":#	c #9D7100",
"<#	c #E5A908",
"[#	c #FFDD4E",
"}#	c #DDA608",
"|#	c #E5B51D",
"1#	c #FEE35B",
"2#	c #EECE48",
"3#	c #E1BF34",
"4#	c #7E794E",
"5#	c #6D7B9E",
"6#	c #C4C5DC",
"7#	c #A9B2DC",
"8#	c #A3B6E7",
"9#	c #B5C5EE",
"0#	c #BACBF0",
"a#	c #ADBFEB",
"b#	c #96A7DB",
"c#	c #AAADD2",
"d#	c #9CA0C2",
"e#	c #536392",
"f#	c #9AA2C1",
"g#	c #7080A7",
"h#	c #9D9493",
"i#	c #826549",
"j#	c #E3A704",
"k#	c #FFD643",
"l#	c #D19600",
"m#	c #F3CA34",
"n#	c #FFEA58",
"o#	c #FFE551",
"p#	c #FDDB45",
"q#	c #F1CD37",
"r#	c #DBB61E",
"s#	c #93832F",
"t#	c #56678F",
"u#	c #8B96BD",
"v#	c #BABFDB",
"w#	c #BBBFDE",
"x#	c #B8BDDF",
"y#	c #B5B8D9",
"z#	c #A8ABCC",
"A#	c #7682AC",
"B#	c #546694",
"C#	c #969FBF",
"D#	c #66769E",
"E#	c #838086",
"F#	c #E8D7C5",
"G#	c #D0BAA6",
"H#	c #73563B",
"I#	c #E1A502",
"J#	c #F1BA22",
"K#	c #D69D00",
"L#	c #FFD325",
"M#	c #FFE12A",
"N#	c #FFDE22",
"O#	c #FFD90E",
"P#	c #FFD200",
"Q#	c #FBCA00",
"R#	c #F6C500",
"S#	c #DAAF02",
"T#	c #918430",
"U#	c #626658",
"V#	c #676D6B",
"W#	c #6A7070",
"X#	c #606667",
"Y#	c #5A5B4A",
"Z#	c #545546",
"`#	c #8592B9",
" $	c #6A77A0",
".$	c #6D5D55",
"+$	c #B1875E",
"@$	c #CEB396",
"#$	c #E6D5C3",
"$$	c #CFB8A2",
"%$	c #7B5F43",
"&$	c #DEA100",
"*$	c #E1A508",
"=$	c #DDA500",
"-$	c #FFD300",
";$	c #FFD600",
">$	c #FFD100",
",$	c #FFCF00",
"'$	c #F5C300",
")$	c #E1B400",
"!$	c #CA9C01",
"~$	c #BD8E00",
"{$	c #B88600",
"]$	c #45526E",
"^$	c #4A454F",
"/$	c #9D7043",
"($	c #A97D4F",
"_$	c #B68F6A",
":$	c #D0B59C",
"<$	c #E6D6C5",
"[$	c #CCB49E",
"}$	c #73573D",
"|$	c #D99B00",
"1$	c #EDB600",
"2$	c #FFCA00",
"3$	c #F7C100",
"4$	c #E9B100",
"5$	c #DCA300",
"6$	c #CF9400",
"7$	c #BF8800",
"8$	c #A27500",
"9$	c #604200",
"0$	c #6A4828",
"a$	c #956C40",
"b$	c #A97C4F",
"c$	c #B38A63",
"d$	c #D2B99F",
"e$	c #E5D3C3",
"f$	c #C3A98F",
"g$	c #6A4B2F",
"h$	c #D59900",
"i$	c #FECB00",
"j$	c #FFCE00",
"k$	c #F8C100",
"l$	c #E7AE00",
"m$	c #D79D00",
"n$	c #D29600",
"o$	c #B58100",
"p$	c #8B6200",
"q$	c #523700",
"r$	c #6B4828",
"s$	c #9E7246",
"t$	c #A97D51",
"u$	c #B9946F",
"v$	c #D0B69B",
"w$	c #CDB296",
"x$	c #846343",
"y$	c #D09600",
"z$	c #E6AC00",
"A$	c #D99D00",
"B$	c #CB9100",
"C$	c #B58000",
"D$	c #966B00",
"E$	c #785400",
"F$	c #6A4728",
"G$	c #A87D4F",
"H$	c #AF855B",
"I$	c #9C7651",
"J$	c #5A3E24",
"K$	c #916400",
"L$	c #C48A00",
"M$	c #9B6D00",
"N$	c #6D4C00",
"O$	c #674526",
"P$	c #94673D",
"Q$	c #92663D",
"R$	c #553A1F",
"S$	c #45301D",
"T$	c #321F0E",
"                                                                ",
"                                                                ",
"            . + @ # $                                           ",
"      % & * = - ; > , '                                         ",
"    ) ! ~ { ] ^ / ^ ( _             : < [ } | 1                 ",
"  2 3 4 5 ^ ^ ^ 6 6 ~ 7 8 9 0 | a b c d e f g h                 ",
"  a i j k k l j { m n o p q r s t u v w x y z A                 ",
"  B C { { { D E F G H I J K L M N O P Q R S T A                 ",
"  U V m m x w W X Y Z `  ...+.@.#.$.%.&.*.=.-.;.>.,.'.).!.~.{.  ",
"  ].^.S S F /.(._.:.<.[.}.|.1.2.3.4.5.6.7.8.9.0.a.b.c.d.e.f.g.  ",
"  h.i.j.k.l.m.n.o.p.q.r.s.t.u.v.w.u.w.x.y.z.A.B.C.D.E.F.G.H.    ",
"  I.J.K.L.M.N.O.P.Q.R.S.T.U.V.W.W.W.X.Y.Z.`. +.+++@+#+$+%+&+    ",
"  *+=+-+;+>+,+'+)+!+~+{+]+^+/+(+_+:+<+<+[+}+|+1+2+3+4+5+6+7+    ",
"  8+9+0+a+b+c+d+e+f+g+h+:+i+j+]+k+l+m+n+o+p+q+r+s+t+u+v+w+      ",
"  x+y+z z+A+B+C+D+E+F+<+G+H+I+J+K+L+M+N+O+P+Q+R+S+T+U+V+W+      ",
"  X+Y+Z+`+ @B+.@+@@@#@$@%@&@*@=@-@;@>@,@M+'@)@!@~@{@]@^@        ",
"  /@(@_@:@<@[@}@|@1@2@3@4@5@$@6@7@8@9@0@a@b@c@d@e@f@g@h@        ",
"  /@i@j@k@l@m@n@o@p@q@r@s@t@u@v@%@w@x@t@4@y@z@A@B@C@D@E@        ",
"  F@G@H@I@'.J@K@L@M@N@O@P@Q@R@S@T@]+U@V@W@X@Y@Z@`@ #.#          ",
"  +#@###$#%#&#*#=#-#;#>#,#'#)#W.!#U.U@~#{#]#^#/#(#_#:#          ",
"    <#[#}#|#:@1#2#3#4#5#6#7#8#9#0#a#b#c#d#e#f#g#h#i#            ",
"    j#k#l#m#n#o#p#q#r#s#t#u#v#w#x#y#z#A#B#C#D#E#F#G#H#          ",
"    I#J#K#L#M#N#O#P#Q#R#S#T#U#V#W#X#Y#Z#`# $.$+$@$#$$$%$        ",
"    &$*$=$-${@;$f@;$-$>$,$,$'$)$!$~${$g.]$^$/$($_$:$<$[$}$      ",
"    |$l#1${@;$;$f@P#2$3$4$5$6$7$8$E@9$      0$a$b$c$d$e$f$g$    ",
"    h$} i$f@j$k$l$b m$n$o$p$q$                r$s$t$u$v$w$x$    ",
"    , y$z$A$B$C$D$E$                            F$a$G$H$I$J$    ",
"    K$L$M$N$                                      O$P$Q$R$      ",
"                                                    S$T$        ",
"                                                                ",
"                                                                ",
"                                                                "};
