/* XPM */
static char * Help_About_xpm[] = {
"32 32 158 2",
"  	c None",
". 	c #D4CEC3",
"+ 	c #F6F5F1",
"@ 	c #ECE9DA",
"# 	c #C9C2B3",
"$ 	c #AFA49A",
"% 	c #C9CABD",
"& 	c #FCFCFB",
"* 	c #DBD8C6",
"= 	c #BAB0A5",
"- 	c #AFA091",
"; 	c #F0EFE8",
"> 	c #E5E4E3",
", 	c #FAFAF9",
"' 	c #ECEBE2",
") 	c #E0D9CD",
"! 	c #F3F2EB",
"~ 	c #D9D9D8",
"{ 	c #D3D1CA",
"] 	c #B0A59B",
"^ 	c #B6A894",
"/ 	c #F9F9F6",
"( 	c #E8E6DC",
"_ 	c #CECDC3",
": 	c #B9C1B3",
"< 	c #E6E2D1",
"[ 	c #BAAC95",
"} 	c #E1DED0",
"| 	c #DEDCCD",
"1 	c #E2E1D5",
"2 	c #BEBDB5",
"3 	c #D9D5C1",
"4 	c #DED9C1",
"5 	c #EAE8DE",
"6 	c #A99C8D",
"7 	c #D0C9AF",
"8 	c #D6D2BD",
"9 	c #C9C7C6",
"0 	c #CDCBBD",
"a 	c #DAD6C5",
"b 	c #B8BDB8",
"c 	c #B7AC8C",
"d 	c #C6C1A5",
"e 	c #CCC6AA",
"f 	c #CCC7AD",
"g 	c #C0BFB3",
"h 	c #BABDA8",
"i 	c #B3B2AB",
"j 	c #A8AEA8",
"k 	c #C2C2C0",
"l 	c #D5D5D1",
"m 	c #A69681",
"n 	c #C2BC9D",
"o 	c #C5C0A2",
"p 	c #B8B6A9",
"q 	c #ADB2AD",
"r 	c #D0CFCF",
"s 	c #C0BA99",
"t 	c #F8F6F2",
"u 	c #AA9679",
"v 	c #E8E5D3",
"w 	c #9D9188",
"x 	c #BEB695",
"y 	c #F0EEE3",
"z 	c #C7CBBF",
"A 	c #B4C1AF",
"B 	c #B1BBAC",
"C 	c #9C8F86",
"D 	c #A6BDA2",
"E 	c #B2D6AC",
"F 	c #9EBE9A",
"G 	c #98B093",
"H 	c #95AC93",
"I 	c #7D957A",
"J 	c #9BA392",
"K 	c #DAD4B8",
"L 	c #AC9A7A",
"M 	c #E2DEC9",
"N 	c #C7DBC4",
"O 	c #AFC5AB",
"P 	c #91A68B",
"Q 	c #86A682",
"R 	c #C9C9B4",
"S 	c #A79171",
"T 	c #A9BBA5",
"U 	c #D5E7D2",
"V 	c #AAAE9A",
"W 	c #D4D0BA",
"X 	c #E4DFCB",
"Y 	c #949A82",
"Z 	c #7D9D78",
"` 	c #9A8A7A",
" .	c #A89173",
"..	c #B9A889",
"+.	c #A7AF97",
"@.	c #BFDEBA",
"#.	c #B1AF9C",
"$.	c #A0AB9F",
"%.	c #82987D",
"&.	c #EBE8D9",
"*.	c #9E9186",
"=.	c #94877D",
"-.	c #87786C",
";.	c #AACDA4",
">.	c #A8C7A2",
",.	c #857B64",
"'.	c #AFA085",
").	c #A9AD95",
"!.	c #9BB796",
"~.	c #80957F",
"{.	c #859984",
"].	c #89A188",
"^.	c #B2D7AB",
"/.	c #848279",
"(.	c #928983",
"_.	c #7F806E",
":.	c #ADD0A7",
"<.	c #788D77",
"[.	c #80715A",
"}.	c #858D74",
"|.	c #A4C89E",
"1.	c #9AA48C",
"2.	c #7C9B77",
"3.	c #8B9B89",
"4.	c #A09A97",
"5.	c #8AA787",
"6.	c #8FAE8B",
"7.	c #7A6E5F",
"8.	c #8D7A67",
"9.	c #798D70",
"0.	c #748D71",
"a.	c #A0957C",
"b.	c #CABFA4",
"c.	c #DDD8BE",
"d.	c #9ABC95",
"e.	c #849782",
"f.	c #898980",
"g.	c #769174",
"h.	c #78766C",
"i.	c #968167",
"j.	c #C4B799",
"k.	c #D0C6A9",
"l.	c #B19F80",
"m.	c #88A884",
"n.	c #B5B9B5",
"o.	c #A0A6A0",
"p.	c #90B18B",
"q.	c #A2AAA2",
"r.	c #A7AAA5",
"s.	c #8D7C6D",
"t.	c #9A856A",
"u.	c #917F6C",
"v.	c #83A47E",
"w.	c #99A798",
"x.	c #959F96",
"y.	c #909D8F",
"z.	c #91A190",
"A.	c #A6B1A6",
"                                                                ",
"                                                                ",
"                    . + @ # $                                   ",
"                  % & & & & & + * = $                           ",
"                - ; > , & & & & & & & ' # $                     ",
"                ) ! ' ~ ! + & + & & & & & & & { = ]             ",
"              ^ ; ! ; > { ' ' ; ' ; ; + ! + + & / & > #         ",
"              ) ( ' ( ( _ : ) < ( ( ( ( ' ' ' ' ! ! + + %       ",
"            [ } ) ) ) | 1 _ 2 3 4 ) ) ) ) < < ( < @ 5 5 {       ",
"          6 7 8 8 3 4 ) ) < > 9 0 7 8 8 3 3 a a * 0 b b 9       ",
"          c d e f 7 7 3 ' & & ; 9 g e e 7 # h i j k l > ;       ",
"        m n n n o d 8 ! & & & & ; 9 h p q k r _ } > ' ; '       ",
"        c s n s n a t t & t & & t ; ~ ~ > + / ' 1 < ( ' (       ",
"      u s n s o v ! ! ! ! + ! t t + + + t t & t ) ) < < } w     ",
"    $ x n s 7 ' y y ' z A B : > ! ! ! + ! t t t } a a ) a C     ",
"    u n n 4 @ @ @ 0 D E F G H I J B < ; ! ! ! ! y 7 8 8 K C     ",
"    L e M v v M B N O J h % 0 g P Q I _ @ y y y ; K R 7 R C     ",
"    S K M M 4 T U B V W ) X < M . Y Z P } @ @ @ @ < o o d C     ",
"    `  ...n +.@.T #.W R h 4 M M M $.Z %.a v v &.v @ f n n *.    ",
"        =.-.;.>.,.'.).>.!.~.P h 4 V Z {.8 X X X v X 4 n x *.    ",
"          ].^./.(._.:.<.[.}.|.Y 7 1.2.Y 8 4 4 M 4 X 4 e s *.    ",
"        b >.H     ;.3.4./.5.6.7.8.9.0.a.b.K K 4 c.c.4 K ..w     ",
"        ].d.q   !.H     e.Q 3.  f.g.h.-.8.i.u ..j.k.K K l.      ",
"        m.].  b d.n.  {.o.p.q.q <.r.          =.s.s.t.S u.      ",
"      b v.w.  w.].q.{.  j Q 0.x.                                ",
"      q.Z n.  b I x.      {.n.q.q.                              ",
"      $.2.                  q.<.                                ",
"      n.2.n.              {.I                                   ",
"        y.0.z.A.q A.w.I g.3.                                    ",
"            q 3.~.I e.x.                                        ",
"                                                                ",
"                                                                "};
